<svg width="91" height="246" viewBox="0 0 91 246" fill="none" xmlns="http://www.w3.org/2000/svg">
<ellipse cx="47" cy="242.5" rx="44" ry="3.5" fill="#071B31"/>
<g clip-path="url(#clip0_301_2362)">
<path d="M40.1248 19.897C34.8928 23.2321 42.3698 30.4708 40.1248 35.0566C37.8798 39.6424 30.612 39.1687 27.8343 43.8682C25.2849 48.2076 32.6858 56.6591 26.5786 65.8117C25.8025 66.9032 24.8145 67.8286 23.6731 68.5333C22.5317 69.2379 21.26 69.7075 19.9333 69.9142C18.6065 70.1209 17.2516 70.0605 15.9487 69.7367C14.6457 69.4128 13.4212 68.8321 12.3475 68.0288C6.41156 64.2389 0.68488 49.7994 6.63987 41.9732C12.5949 34.1471 23.2301 36.5347 26.5786 33.2185C30.3837 29.4286 22.7735 23.0426 29.5847 19.4233C32.4426 17.8418 35.8055 17.4274 38.9642 18.2673C39.6301 18.7411 40.6004 19.5938 40.1248 19.897Z" fill="#284464"/>
<path d="M37.4802 20.4844V20.5981C37.4319 20.6401 37.393 20.6918 37.3661 20.7497C37.3176 20.8231 37.2731 20.899 37.2329 20.9771C37.1886 21.0757 37.1505 21.177 37.1188 21.2803C37.1079 21.4064 37.1079 21.5332 37.1188 21.6593C37.0566 21.9909 37.0184 22.3266 37.0046 22.6636C37.002 23.5955 37.0656 24.5263 37.1949 25.4492C37.309 26.5104 37.4802 27.7232 37.5563 29.0686C37.6132 29.7749 37.6132 30.4846 37.5563 31.1909C37.4834 31.969 37.2503 32.7237 36.8714 33.408V33.5217L36.6812 33.7681L36.4909 33.9954L36.2816 34.2228C35.9932 34.5189 35.6815 34.7913 35.3494 35.0377C34.6882 35.542 33.9955 36.004 33.2756 36.421C31.8296 37.2737 30.2696 38.0317 28.7475 38.9034C27.9887 39.3304 27.2579 39.805 26.5596 40.3246C26.2106 40.5715 25.8857 40.8507 25.5893 41.1584C25.2817 41.4465 25.0188 41.7786 24.8092 42.1437C24.4004 42.9024 24.142 43.7323 24.0482 44.5882C23.9217 45.4412 23.8708 46.3035 23.896 47.1653C23.896 48.9087 24.1053 50.6142 24.2385 52.2817C24.3822 53.8882 24.433 55.5016 24.3907 57.1138C24.3616 57.8713 24.2725 58.6253 24.1243 59.3688C24.0025 60.0641 23.8047 60.744 23.5345 61.3965C23.2682 62.0031 22.9297 62.5757 22.5262 63.1019C22.1532 63.5637 21.7178 63.9718 21.2324 64.3147C20.4483 64.8761 19.573 65.2992 18.645 65.5653C18.06 65.7391 17.4619 65.8658 16.8566 65.9443L16.2097 66.0391C16.1724 66.0394 16.1363 66.026 16.1083 66.0016C16.0802 65.9771 16.0622 65.9433 16.0575 65.9064C16.0512 65.8887 16.0494 65.8698 16.0522 65.8512C16.055 65.8327 16.0624 65.8151 16.0737 65.8001C16.085 65.7851 16.0999 65.7731 16.117 65.7652C16.1341 65.7573 16.1528 65.7538 16.1716 65.7548L16.7995 65.6601C17.391 65.5573 17.9756 65.418 18.5498 65.2432C19.4219 64.9636 20.2439 64.5478 20.9851 64.0115C21.9248 63.2861 22.6537 62.3247 23.0969 61.2259C23.3485 60.6142 23.5397 59.9796 23.6677 59.331C23.7872 58.6102 23.8572 57.882 23.877 57.1518C23.9056 55.5577 23.8421 53.9633 23.6867 52.3765C23.5536 50.7279 23.3633 49.0035 23.3443 47.2412C23.3131 46.3421 23.3577 45.442 23.4775 44.5503C23.536 44.0949 23.6314 43.645 23.7628 43.2049C23.8992 42.7627 24.0842 42.3369 24.3146 41.9353C24.5509 41.5227 24.8456 41.1462 25.1897 40.8173C25.5094 40.4952 25.8528 40.1975 26.2171 39.9266C26.9396 39.3981 27.6959 38.9171 28.4812 38.4865C30.0222 37.6148 31.5823 36.8568 33.0092 36.023C33.7145 35.6229 34.3944 35.18 35.045 34.6966C35.3534 34.4637 35.6458 34.2105 35.9202 33.9386L36.1104 33.7301L36.3007 33.5217L36.4719 33.2943V33.1806C36.8257 32.5565 37.046 31.8661 37.1188 31.153C37.166 30.4716 37.166 29.7878 37.1188 29.1065C37.1188 27.7989 36.9095 26.5862 36.8143 25.5061C36.7008 24.5694 36.6562 23.6257 36.6812 22.6826C36.6857 22.3261 36.7239 21.9708 36.7953 21.6214C36.8254 21.4783 36.8701 21.3386 36.9285 21.2045C36.9664 21.0884 37.0109 20.9745 37.0617 20.8634C37.1041 20.7705 37.155 20.6817 37.2139 20.5981L37.3471 20.4276L37.4612 20.3139C37.4737 20.3002 37.4888 20.2891 37.5056 20.2812C37.5224 20.2733 37.5406 20.2688 37.5591 20.2679C37.5777 20.2671 37.5962 20.2698 37.6137 20.2761C37.6312 20.2823 37.6472 20.292 37.661 20.3044C37.6747 20.3169 37.6859 20.3319 37.6938 20.3486C37.7017 20.3653 37.7062 20.3835 37.7071 20.4019C37.708 20.4204 37.7052 20.4389 37.6989 20.4563C37.6926 20.4737 37.683 20.4897 37.6705 20.5034L37.4802 20.4844Z" fill="#284464"/>
<path d="M36.4149 19.2716H36.2627L35.8061 19.3854C35.2272 19.5324 34.6751 19.7689 34.1699 20.0865C33.8072 20.2928 33.4901 20.5699 33.2377 20.9013C32.9324 21.2898 32.7062 21.734 32.5718 22.2088C32.4385 22.7546 32.3746 23.3148 32.3815 23.8764C32.3905 24.51 32.435 25.1427 32.5147 25.7713C32.5147 26.4535 32.6859 27.1357 32.743 27.8747C32.8108 28.6375 32.8108 29.4048 32.743 30.1676C32.71 30.995 32.5094 31.8072 32.1532 32.5553C31.959 32.9431 31.7091 33.3006 31.4112 33.6164C31.2689 33.7835 31.1164 33.9417 30.9546 34.0902L30.4409 34.4881C29.0049 35.5148 27.4289 36.3316 25.7606 36.9137C24.0864 37.539 22.3741 38.1075 20.7569 38.8086C19.9603 39.1983 19.1911 39.6415 18.4548 40.1351C17.7666 40.6408 17.1294 41.2119 16.5523 41.8405C15.9564 42.4666 15.4273 43.1525 14.9732 43.8871C14.7448 44.2471 14.5546 44.6261 14.3643 45.0051C14.1741 45.3841 13.9838 45.7631 13.8126 46.1421C13.1603 47.6144 12.6445 49.1431 12.2715 50.7089C11.9333 52.1104 11.7043 53.5359 11.5866 54.9726C11.5866 55.6358 11.5866 56.2801 11.5866 56.8675C11.5866 57.455 11.5866 58.0613 11.5866 58.5919C11.6339 59.5336 11.7483 60.4709 11.9291 61.3965C12.0295 61.9908 12.1629 62.5791 12.3286 63.1587C12.3705 63.3131 12.4213 63.465 12.4808 63.6135V63.7841C12.4808 63.8193 12.4668 63.853 12.4418 63.8779C12.4168 63.9028 12.3829 63.9167 12.3476 63.9167C12.3123 63.9167 12.2784 63.9028 12.2535 63.8779C12.2285 63.853 12.2144 63.8193 12.2144 63.7841V63.6325C12.1549 63.4839 12.1041 63.3321 12.0623 63.1777C11.9291 62.7608 11.7769 62.1734 11.6056 61.3965C11.4054 60.4588 11.2656 59.5094 11.1871 58.554C11.0871 57.2927 11.0871 56.0255 11.1871 54.7641C11.2976 53.3853 11.5138 52.017 11.8339 50.671C12.2159 49.0747 12.738 47.5148 13.394 46.0094C13.5653 45.6304 13.7555 45.2325 13.9458 44.8535C14.136 44.4745 14.3453 44.0766 14.5736 43.6976C15.0465 42.9317 15.5946 42.2144 16.2098 41.5563C17.482 40.2298 19.0004 39.1616 20.6808 38.4107C22.317 37.6148 24.0483 37.0463 25.7035 36.421C27.3347 35.8635 28.8785 35.0788 30.2887 34.0902L30.7643 33.7112C30.9132 33.5819 31.0531 33.4426 31.1829 33.2943C31.449 33.0116 31.6732 32.6926 31.8488 32.3468C32.189 31.6611 32.3834 30.9127 32.4196 30.1487C32.4866 29.4112 32.4866 28.6691 32.4196 27.9316C32.4196 27.2115 32.2673 26.5104 32.2103 25.8471C32.0172 24.5866 32.0624 23.3012 32.3435 22.0572C32.6058 21.09 33.2419 20.2657 34.1128 19.7644C34.6557 19.4406 35.2464 19.204 35.8632 19.0632L36.3388 18.9495H36.491C36.514 18.941 36.5388 18.9382 36.5631 18.9412C36.5875 18.9443 36.6107 18.9532 36.6309 18.9672C36.651 18.9811 36.6675 18.9997 36.6789 19.0214C36.6902 19.0431 36.6962 19.0672 36.6962 19.0917C36.6962 19.1161 36.6902 19.1402 36.6789 19.1619C36.6675 19.1835 36.651 19.2021 36.6309 19.2161C36.6107 19.2301 36.5875 19.239 36.5631 19.242C36.5388 19.2451 36.514 19.2423 36.491 19.2338L36.4149 19.2716Z" fill="#284464"/>
<path d="M38.0891 19.3096L37.8608 19.4043L37.5374 19.5749C37.5161 19.5885 37.4924 19.598 37.4675 19.6025C37.4426 19.6071 37.4171 19.6067 37.3924 19.6014C37.3424 19.5907 37.2988 19.5607 37.271 19.518C37.2433 19.4753 37.2337 19.4233 37.2444 19.3736C37.2551 19.3238 37.2852 19.2804 37.3281 19.2527C37.4426 19.1788 37.5636 19.1154 37.6896 19.0632L37.9369 18.9495H38.0511C38.0748 18.9405 38.1 18.9363 38.1254 18.9371C38.1508 18.938 38.1757 18.9439 38.1988 18.9545C38.2218 18.9651 38.2425 18.9801 38.2596 18.9988C38.2767 19.0175 38.2899 19.0394 38.2984 19.0632C38.3075 19.0869 38.3117 19.112 38.3109 19.1373C38.31 19.1626 38.3041 19.1874 38.2934 19.2104C38.2828 19.2333 38.2677 19.2539 38.2489 19.271C38.2302 19.288 38.2082 19.3011 38.1842 19.3096H38.0891Z" fill="#284464"/>
<path d="M36.1865 20.9013V21.015C36.1865 21.015 36.1865 21.2045 36.0533 21.2992C35.9911 21.4403 35.9402 21.586 35.9011 21.7351C35.88 21.7853 35.8415 21.8263 35.7926 21.8506C35.7438 21.8749 35.6877 21.881 35.6348 21.8677C35.5808 21.8502 35.5354 21.8134 35.5073 21.7643C35.4791 21.7153 35.4703 21.6576 35.4826 21.6024L35.6728 21.1287L35.825 20.8255V20.6928C35.8638 20.6569 35.9147 20.6369 35.9677 20.6369C36.0207 20.6369 36.0717 20.6569 36.1104 20.6928C36.1453 20.7283 36.1648 20.7759 36.1648 20.8255C36.1648 20.8751 36.1453 20.9227 36.1104 20.9582L36.1865 20.9013Z" fill="#284464"/>
<path d="M35.4826 24.4828V25.0512C35.4826 25.1116 35.4586 25.1694 35.4157 25.212C35.3729 25.2547 35.3148 25.2787 35.2543 25.2787C35.2253 25.2813 35.196 25.2779 35.1684 25.2686C35.1407 25.2593 35.1154 25.2444 35.0939 25.2247C35.0724 25.2051 35.0552 25.1812 35.0435 25.1546C35.0319 25.128 35.0259 25.0993 35.026 25.0702V24.5017C35.026 24.4719 35.0319 24.4423 35.0434 24.4147C35.0549 24.3871 35.0717 24.362 35.0929 24.3409C35.1141 24.3198 35.1392 24.3031 35.1669 24.2916C35.1946 24.2802 35.2243 24.2743 35.2543 24.2743C35.3117 24.2741 35.3671 24.2955 35.4094 24.3341C35.4517 24.3727 35.4778 24.4258 35.4826 24.4828Z" fill="#284464"/>
<path d="M35.5967 26.3588V27.1357C35.5994 27.1671 35.5954 27.1988 35.5851 27.2286C35.5749 27.2584 35.5585 27.2857 35.537 27.3089C35.5155 27.3321 35.4895 27.3505 35.4604 27.3631C35.4314 27.3757 35.4001 27.3822 35.3684 27.3821C35.338 27.3877 35.3066 27.3865 35.2766 27.3786C35.2467 27.3706 35.2188 27.3562 35.1952 27.3362C35.1715 27.3163 35.1526 27.2913 35.1398 27.2632C35.127 27.2351 35.1206 27.2045 35.1211 27.1736V26.3967C35.1185 26.3668 35.1219 26.3367 35.131 26.3081C35.1401 26.2795 35.1548 26.253 35.1743 26.2301C35.1937 26.2073 35.2175 26.1884 35.2443 26.1747C35.2711 26.161 35.3004 26.1527 35.3304 26.1503C35.3931 26.1448 35.4555 26.1633 35.505 26.202C35.5545 26.2407 35.5873 26.2968 35.5967 26.3588Z" fill="#284464"/>
<path d="M35.787 29.0307C35.787 29.0307 35.787 29.277 35.787 29.5233C35.787 29.7697 35.787 30.0161 35.787 30.0161C35.7871 30.0476 35.7807 30.0788 35.768 30.1077C35.7554 30.1366 35.7368 30.1625 35.7136 30.1839C35.6903 30.2053 35.6628 30.2216 35.6329 30.2319C35.603 30.2421 35.5712 30.2461 35.5397 30.2434C35.4741 30.2434 35.4112 30.2175 35.3648 30.1713C35.3184 30.1251 35.2924 30.0624 35.2924 29.9971C35.2924 29.9971 35.2924 29.7507 35.2924 29.5233C35.2924 29.296 35.2924 29.0496 35.2924 29.0496C35.2924 28.9843 35.3184 28.9216 35.3648 28.8754C35.4112 28.8292 35.4741 28.8033 35.5397 28.8033C35.5712 28.8007 35.603 28.8046 35.6329 28.8148C35.6628 28.8251 35.6903 28.8414 35.7136 28.8628C35.7368 28.8842 35.7554 28.9101 35.768 28.939C35.7807 28.9679 35.7871 28.9991 35.787 29.0307Z" fill="#284464"/>
<path d="M34.8547 32.8016L34.7405 32.9722L34.5503 33.1996C34.5272 33.2242 34.4992 33.2439 34.4681 33.2574C34.437 33.2708 34.4034 33.2777 34.3695 33.2777C34.3357 33.2777 34.3021 33.2708 34.271 33.2574C34.2399 33.2439 34.2119 33.2242 34.1888 33.1996C34.1471 33.1488 34.1243 33.0852 34.1243 33.0195C34.1243 32.9539 34.1471 32.8903 34.1888 32.8395L34.36 32.6311L34.4742 32.4795C34.5234 32.4342 34.5879 32.4091 34.6549 32.4091C34.7219 32.4091 34.7865 32.4342 34.8357 32.4795C34.8772 32.5219 34.902 32.5779 34.9055 32.637C34.909 32.6962 34.891 32.7546 34.8547 32.8016Z" fill="#284464"/>
<path d="M33.5611 34.2797L33.2757 34.545L32.9713 34.7913C32.9178 34.8148 32.858 34.8201 32.8012 34.8064C32.7444 34.7927 32.6936 34.7607 32.6569 34.7155C32.6201 34.6702 32.5993 34.6142 32.5976 34.556C32.596 34.4978 32.6137 34.4406 32.6478 34.3934L32.9332 34.147L33.2186 33.9007C33.2417 33.876 33.2697 33.8564 33.3008 33.8429C33.3319 33.8295 33.3654 33.8225 33.3993 33.8225C33.4332 33.8225 33.4668 33.8295 33.4979 33.8429C33.529 33.8564 33.5569 33.876 33.5801 33.9007C33.6255 33.9497 33.6508 34.014 33.6508 34.0807C33.6508 34.1474 33.6255 34.2117 33.5801 34.2607L33.5611 34.2797Z" fill="#284464"/>
<path d="M31.4112 35.9472L30.6121 36.4589C30.5629 36.5042 30.4983 36.5293 30.4313 36.5293C30.3644 36.5293 30.2998 36.5042 30.2506 36.4589C30.2253 36.4342 30.2052 36.4047 30.1915 36.3722C30.1777 36.3396 30.1707 36.3047 30.1707 36.2694C30.1707 36.2341 30.1777 36.1992 30.1915 36.1666C30.2052 36.1341 30.2253 36.1046 30.2506 36.0799L31.0497 35.5872C31.0728 35.5625 31.1008 35.5429 31.1319 35.5294C31.163 35.516 31.1965 35.509 31.2304 35.509C31.2643 35.509 31.2979 35.516 31.3289 35.5294C31.36 35.5429 31.388 35.5625 31.4112 35.5872C31.4566 35.6362 31.4819 35.7005 31.4819 35.7672C31.4819 35.834 31.4566 35.8982 31.4112 35.9472Z" fill="#284464"/>
<path d="M28.0816 37.8612L27.587 38.1264C27.533 38.1695 27.4659 38.1929 27.3967 38.1929C27.3275 38.1929 27.2604 38.1695 27.2064 38.1264C27.1768 38.0601 27.1719 37.9854 27.1929 37.9158C27.2138 37.8463 27.2592 37.7865 27.3206 37.7474L27.8343 37.4821C27.8655 37.4657 27.8996 37.4557 27.9347 37.4525C27.9699 37.4494 28.0053 37.4532 28.0389 37.4637C28.0725 37.4743 28.1037 37.4915 28.1306 37.5141C28.1576 37.5368 28.1797 37.5646 28.1958 37.5959C28.2045 37.6463 28.1983 37.6982 28.1781 37.7453C28.1578 37.7924 28.1243 37.8326 28.0816 37.8612Z" fill="#284464"/>
<path d="M26.3884 38.7517L25.7225 39.1118C25.6567 39.1458 25.5802 39.1529 25.5091 39.1317C25.4381 39.1105 25.3782 39.0625 25.342 38.9981C25.3135 38.9345 25.3093 38.8628 25.3304 38.7964C25.3514 38.7301 25.3962 38.6737 25.4562 38.638L26.1411 38.278C26.2041 38.2453 26.2777 38.239 26.3455 38.2603C26.4132 38.2816 26.4698 38.3289 26.5026 38.3917C26.5354 38.4545 26.5418 38.5277 26.5204 38.5953C26.4989 38.6628 26.4515 38.7191 26.3884 38.7517Z" fill="#284464"/>
<path d="M24.0673 40.0404L23.2492 40.533C23.2244 40.5582 23.1948 40.5783 23.1621 40.592C23.1294 40.6056 23.0944 40.6127 23.0589 40.6127C23.0235 40.6127 22.9884 40.6056 22.9557 40.592C22.9231 40.5783 22.8935 40.5582 22.8687 40.533C22.8205 40.4779 22.7939 40.4072 22.7939 40.3341C22.7939 40.2609 22.8205 40.1903 22.8687 40.1351L23.6868 39.6424C23.7479 39.6234 23.8136 39.6254 23.8734 39.6481C23.9332 39.6708 23.9836 39.7129 24.0165 39.7675C24.0494 39.8222 24.0629 39.8862 24.0549 39.9495C24.0468 40.0127 24.0177 40.0714 23.9721 40.1161L24.0673 40.0404Z" fill="#284464"/>
<path d="M21.0422 42.2385L20.6236 42.6554C20.5703 42.7074 20.4986 42.7366 20.4239 42.7366C20.3492 42.7366 20.2775 42.7074 20.2241 42.6554C20.1706 42.5991 20.1407 42.5245 20.1407 42.4469C20.1407 42.3694 20.1706 42.2948 20.2241 42.2385L20.6236 41.8405C20.6486 41.8123 20.6794 41.7897 20.7138 41.7742C20.7483 41.7587 20.7856 41.7507 20.8234 41.7507C20.8612 41.7507 20.8986 41.7587 20.933 41.7742C20.9674 41.7897 20.9982 41.8123 21.0232 41.8405C21.0781 41.8911 21.1108 41.9612 21.1144 42.0356C21.118 42.11 21.092 42.1829 21.0422 42.2385Z" fill="#284464"/>
<path d="M19.8436 43.6408V43.7545L19.7105 43.9629C19.6469 44.0667 19.5897 44.1743 19.5392 44.2851C19.503 44.3496 19.4443 44.3987 19.3742 44.4231C19.3041 44.4475 19.2275 44.4456 19.1587 44.4177C19.0907 44.385 19.0384 44.3267 19.0135 44.2556C18.9885 44.1846 18.9928 44.1066 19.0256 44.0387L19.2158 43.6787L19.349 43.4513V43.3376C19.3738 43.3124 19.4034 43.2923 19.4361 43.2787C19.4687 43.265 19.5038 43.2579 19.5392 43.2579C19.5747 43.2579 19.6098 43.265 19.6424 43.2787C19.6751 43.2923 19.7047 43.3124 19.7295 43.3376C19.7763 43.3897 19.8022 43.4571 19.8022 43.5271C19.8022 43.597 19.7763 43.6645 19.7295 43.7166L19.8436 43.6408Z" fill="#284464"/>
<path d="M18.8733 46.0284V46.18V46.4831C18.8733 46.7105 18.8733 46.9379 18.8733 46.9379C18.8594 47.0102 18.818 47.0742 18.7577 47.1166C18.6973 47.159 18.6229 47.1765 18.5499 47.1653C18.4759 47.1473 18.4114 47.1022 18.3691 47.0391C18.3268 46.9759 18.3099 46.8993 18.3216 46.8243C18.3216 46.8243 18.3216 46.5969 18.3216 46.3505L18.4167 46.0284V45.8768C18.4183 45.8337 18.4296 45.7915 18.45 45.7534C18.4703 45.7153 18.4991 45.6823 18.5342 45.6569C18.5692 45.6316 18.6096 45.6145 18.6522 45.607C18.6949 45.5995 18.7387 45.6017 18.7803 45.6136C18.822 45.6254 18.8604 45.6466 18.8926 45.6754C18.9248 45.7042 18.9501 45.74 18.9664 45.7799C18.9827 45.8199 18.9896 45.8631 18.9867 45.9061C18.9837 45.9491 18.971 45.991 18.9494 46.0284H18.8733Z" fill="#284464"/>
<path d="M18.3596 49.7236V50.2921C18.3622 50.3285 18.3573 50.365 18.3451 50.3994C18.3328 50.4338 18.3136 50.4653 18.2887 50.492C18.2637 50.5187 18.2334 50.54 18.1998 50.5545C18.1662 50.569 18.1299 50.5764 18.0932 50.5763C18.0558 50.5763 18.0187 50.5689 17.984 50.5547C17.9494 50.5404 17.918 50.5194 17.8915 50.493C17.865 50.4667 17.8439 50.4353 17.8296 50.4008C17.8152 50.3664 17.8079 50.3294 17.8079 50.2921V49.7236C17.8127 49.6515 17.8449 49.584 17.8979 49.5347C17.9509 49.4855 18.0207 49.4581 18.0932 49.4583C18.129 49.4554 18.1649 49.4603 18.1985 49.4727C18.2321 49.485 18.2626 49.5044 18.288 49.5296C18.3133 49.5549 18.3328 49.5853 18.3452 49.6188C18.3576 49.6522 18.3625 49.688 18.3596 49.7236Z" fill="#284464"/>
<path d="M18.4357 51.5995V52.3575C18.4412 52.4299 18.4186 52.5017 18.3726 52.5581C18.3266 52.6145 18.2607 52.6512 18.1884 52.6607C18.1157 52.6662 18.0436 52.6437 17.987 52.5979C17.9304 52.552 17.8935 52.4864 17.884 52.4143V51.6564C17.8785 51.5839 17.9011 51.5121 17.9471 51.4557C17.9931 51.3994 18.059 51.3627 18.1313 51.3532C18.2041 51.3477 18.2761 51.3702 18.3327 51.416C18.3894 51.4618 18.4262 51.5275 18.4357 51.5995Z" fill="#284464"/>
<path d="M18.7212 54.2525L18.8353 55.2C18.8408 55.2674 18.8203 55.3344 18.7778 55.3872C18.7354 55.4401 18.6743 55.4748 18.607 55.4842C18.5371 55.4902 18.4674 55.4704 18.4112 55.4284C18.355 55.3865 18.3164 55.3254 18.3026 55.2568L18.1884 54.3093C18.1829 54.2369 18.2055 54.1651 18.2515 54.1087C18.2975 54.0523 18.3635 54.0156 18.4358 54.0061C18.5053 54.0055 18.5727 54.0302 18.6252 54.0756C18.6778 54.121 18.7119 54.1838 18.7212 54.2525Z" fill="#284464"/>
<path d="M18.8733 58.1182V58.6867C18.8711 58.7184 18.8622 58.7493 18.8473 58.7774C18.8324 58.8055 18.8117 58.8302 18.7866 58.8498C18.7615 58.8694 18.7325 58.8836 18.7016 58.8914C18.6706 58.8992 18.6384 58.9005 18.6069 58.8951C18.5726 58.8929 18.5391 58.8836 18.5086 58.8678C18.4781 58.8519 18.4513 58.8299 18.4298 58.8032C18.4083 58.7764 18.3927 58.7455 18.3839 58.7124C18.3751 58.6793 18.3733 58.6447 18.3786 58.6109V58.0424C18.3786 57.977 18.4047 57.9144 18.4511 57.8682C18.4975 57.822 18.5604 57.796 18.626 57.796C18.6916 57.796 18.7545 57.822 18.8009 57.8682C18.8472 57.9144 18.8733 57.977 18.8733 58.0424V58.1182Z" fill="#284464"/>
<path d="M18.4738 60.0131V60.1269V60.3921L18.3216 60.7522C18.3112 60.7814 18.2948 60.8081 18.2736 60.8308C18.2523 60.8534 18.2267 60.8715 18.1982 60.8839C18.1697 60.8963 18.1389 60.9028 18.1078 60.903C18.0767 60.9031 18.0459 60.897 18.0172 60.8848C17.9855 60.8748 17.9563 60.8579 17.9317 60.8354C17.9072 60.813 17.8879 60.7854 17.8752 60.7547C17.8625 60.724 17.8567 60.6909 17.8583 60.6577C17.8598 60.6245 17.8686 60.5921 17.8841 60.5627C17.8841 60.5627 17.884 60.3921 18.0172 60.2216V59.9753C18.0388 59.916 18.0825 59.8672 18.1391 59.839C18.1957 59.8108 18.2611 59.8053 18.3216 59.8237C18.3526 59.8321 18.3815 59.8469 18.4063 59.8672C18.4312 59.8875 18.4514 59.9127 18.4658 59.9413C18.4802 59.97 18.4883 60.0013 18.4897 60.0332C18.4911 60.0652 18.4857 60.0971 18.4738 60.1269V60.0131Z" fill="#284464"/>
<path d="M17.2751 62.4576V62.5902L17.0849 62.8555L16.7805 63.2535C16.763 63.2759 16.7412 63.2946 16.7165 63.3086C16.6917 63.3227 16.6644 63.3317 16.6362 63.3352C16.6079 63.3387 16.5792 63.3367 16.5517 63.3291C16.5243 63.3216 16.4986 63.3088 16.4761 63.2914C16.4536 63.274 16.4348 63.2523 16.4207 63.2276C16.4066 63.203 16.3975 63.1758 16.394 63.1476C16.3905 63.1195 16.3925 63.0909 16.4001 63.0635C16.4076 63.0362 16.4205 63.0106 16.438 62.9882L16.7044 62.6092L16.8946 62.3439V62.2112C16.9396 62.1726 16.997 62.1513 17.0564 62.1513C17.1157 62.1513 17.1731 62.1726 17.2181 62.2112C17.2388 62.2307 17.2553 62.2542 17.2666 62.2803C17.2779 62.3064 17.2837 62.3345 17.2837 62.3628C17.2837 62.3912 17.2779 62.4193 17.2666 62.4454C17.2553 62.4715 17.2388 62.495 17.2181 62.5144L17.2751 62.4576Z" fill="#284464"/>
<path d="M14.7257 65.3759L14.3072 65.7549C14.2684 65.7908 14.2174 65.8108 14.1645 65.8108C14.1115 65.8108 14.0605 65.7908 14.0218 65.7549C13.9869 65.7194 13.9674 65.6718 13.9674 65.6222C13.9674 65.5726 13.9869 65.525 14.0218 65.4896L14.4404 65.0916C14.4582 65.0715 14.4802 65.0553 14.5048 65.0443C14.5294 65.0332 14.5561 65.0275 14.583 65.0275C14.61 65.0275 14.6367 65.0332 14.6613 65.0443C14.6859 65.0553 14.7079 65.0715 14.7257 65.0916C14.7456 65.1076 14.7616 65.1278 14.7726 65.1508C14.7836 65.1737 14.7893 65.1988 14.7893 65.2243C14.7893 65.2497 14.7836 65.2748 14.7726 65.2978C14.7616 65.3207 14.7456 65.3409 14.7257 65.3569V65.3759Z" fill="#284464"/>
<path d="M38.2033 20.9013V20.996C38.2033 20.996 38.2033 21.1477 38.2033 21.2235C38.1651 21.3417 38.1334 21.4618 38.1082 21.5835C38.091 21.6334 38.0569 21.6758 38.0118 21.7035C37.9667 21.7312 37.9133 21.7423 37.8608 21.7351C37.8119 21.7178 37.7712 21.683 37.7466 21.6375C37.722 21.5919 37.7152 21.5389 37.7276 21.4887C37.7554 21.3595 37.7935 21.2328 37.8418 21.1097C37.8619 21.0176 37.8939 20.9284 37.9369 20.8444V20.7307C37.9619 20.6938 37.9992 20.6668 38.0422 20.6544C38.0852 20.6421 38.1312 20.6453 38.172 20.6634C38.2129 20.6815 38.2461 20.7133 38.2657 20.7534C38.2854 20.7934 38.2902 20.8391 38.2794 20.8823L38.2033 20.9013Z" fill="#284464"/>
<path d="M37.8608 23.4027V23.5543C37.8525 23.6615 37.8525 23.7692 37.8608 23.8764C37.8608 24.1038 37.8608 24.3312 37.8608 24.3312C37.8663 24.3586 37.8662 24.3869 37.8605 24.4142C37.8547 24.4416 37.8436 24.4675 37.8276 24.4905C37.8116 24.5135 37.7912 24.5331 37.7675 24.548C37.7438 24.563 37.7173 24.573 37.6896 24.5775C37.662 24.583 37.6337 24.5829 37.6062 24.5772C37.5787 24.5715 37.5527 24.5604 37.5296 24.5445C37.5065 24.5286 37.4869 24.5082 37.4719 24.4846C37.4569 24.461 37.4468 24.4346 37.4422 24.407C37.4422 24.407 37.4422 24.1607 37.4422 23.9333C37.4349 23.8197 37.4349 23.7058 37.4422 23.5922V23.4406C37.4415 23.3863 37.4602 23.3335 37.4951 23.2918C37.53 23.2501 37.5787 23.2222 37.6325 23.2132C37.66 23.2106 37.6877 23.2134 37.7141 23.2216C37.7405 23.2297 37.7651 23.2429 37.7863 23.2606C37.8075 23.2782 37.825 23.2998 37.8378 23.3242C37.8506 23.3486 37.8584 23.3753 37.8608 23.4027Z" fill="#284464"/>
<path d="M38.6218 27.0978L38.774 27.6663C38.7822 27.726 38.7696 27.7867 38.7385 27.8383C38.7074 27.89 38.6595 27.9295 38.6028 27.9505C38.5425 27.9625 38.4798 27.9517 38.427 27.9202C38.3742 27.8887 38.3352 27.8387 38.3174 27.78L38.1652 27.2115C38.1538 27.1538 38.1652 27.0939 38.1972 27.0445C38.2291 26.995 38.279 26.9598 38.3365 26.9462C38.3652 26.9374 38.3954 26.9344 38.4253 26.9373C38.4552 26.9402 38.4842 26.9489 38.5107 26.963C38.5373 26.9771 38.5607 26.9962 38.5798 27.0194C38.5989 27.0425 38.6131 27.0691 38.6218 27.0978Z" fill="#284464"/>
<path d="M39.0975 28.9548L39.2497 29.7128C39.2581 29.7441 39.2597 29.7767 39.2544 29.8086C39.2492 29.8405 39.2371 29.8709 39.2191 29.8978C39.2011 29.9247 39.1776 29.9475 39.15 29.9646C39.1225 29.9817 39.0916 29.9928 39.0594 29.9971C38.9971 30.004 38.9342 29.9888 38.882 29.9541C38.8298 29.9195 38.7916 29.8676 38.774 29.8076L38.6218 29.0685C38.6105 29.0059 38.624 28.9412 38.6595 28.8882C38.6949 28.8352 38.7496 28.798 38.8121 28.7843C38.8421 28.7758 38.8735 28.7736 38.9044 28.7777C38.9353 28.7818 38.9651 28.7921 38.9918 28.8081C39.0186 28.8241 39.0417 28.8453 39.0599 28.8706C39.0781 28.8958 39.0909 28.9245 39.0975 28.9548Z" fill="#284464"/>
<path d="M39.516 31.7215V32.2142C39.516 32.4605 39.516 32.7069 39.516 32.7069C39.5164 32.7402 39.5095 32.7733 39.4958 32.8036C39.482 32.834 39.4617 32.861 39.4363 32.8827C39.4109 32.9044 39.381 32.9203 39.3487 32.9292C39.3164 32.9381 39.2826 32.9398 39.2496 32.9343C39.2171 32.9319 39.1854 32.9231 39.1563 32.9085C39.1272 32.8938 39.1013 32.8736 39.0801 32.8489C39.0588 32.8243 39.0427 32.7957 39.0326 32.7648C39.0226 32.7339 39.0187 32.7014 39.0213 32.669C39.0213 32.669 39.0213 32.4416 39.0213 32.2142C39.0305 32.107 39.0305 31.9992 39.0213 31.892V31.7215C39.0187 31.6901 39.0226 31.6585 39.0329 31.6287C39.0432 31.5988 39.0596 31.5715 39.081 31.5483C39.1025 31.5251 39.1286 31.5067 39.1576 31.4941C39.1866 31.4815 39.218 31.475 39.2496 31.4752C39.2837 31.4725 39.3179 31.477 39.3501 31.4882C39.3823 31.4994 39.4119 31.5171 39.4369 31.5403C39.462 31.5634 39.4819 31.5915 39.4955 31.6226C39.5091 31.6538 39.5161 31.6875 39.516 31.7215Z" fill="#284464"/>
<path d="M38.3364 35.3409L38.1842 35.4735L37.9559 35.663C37.9327 35.6877 37.9047 35.7074 37.8736 35.7208C37.8426 35.7343 37.809 35.7412 37.7751 35.7412C37.7412 35.7412 37.7077 35.7343 37.6766 35.7208C37.6455 35.7074 37.6175 35.6877 37.5944 35.663C37.5489 35.614 37.5237 35.5497 37.5237 35.483C37.5237 35.4163 37.5489 35.352 37.5944 35.303L37.8037 35.1324L37.9559 34.9998C37.9809 34.9774 38.01 34.9601 38.0417 34.9489C38.0734 34.9378 38.107 34.9329 38.1406 34.9347C38.1741 34.9365 38.207 34.9448 38.2373 34.9592C38.2677 34.9736 38.2949 34.9939 38.3174 35.0187C38.3398 35.0436 38.3572 35.0727 38.3684 35.1042C38.3796 35.1358 38.3845 35.1692 38.3827 35.2027C38.3809 35.2361 38.3726 35.2689 38.3581 35.2991C38.3436 35.3293 38.3233 35.3564 38.2983 35.3788L38.3364 35.3409Z" fill="#284464"/>
<path d="M36.7382 36.4778L36.0723 36.8568C36.0107 36.887 35.9402 36.894 35.8738 36.8766C35.8075 36.8592 35.7496 36.8186 35.7109 36.7621C35.6654 36.7131 35.6401 36.6488 35.6401 36.5821C35.6401 36.5153 35.6654 36.4511 35.7109 36.402L36.3767 36.0231C36.4405 35.9947 36.5125 35.9905 36.5792 36.0115C36.6458 36.0324 36.7024 36.077 36.7382 36.1368C36.7824 36.1826 36.8071 36.2437 36.8071 36.3073C36.8071 36.3709 36.7824 36.432 36.7382 36.4778Z" fill="#284464"/>
<path d="M34.3411 37.7095L33.4659 38.1075C33.437 38.1268 33.404 38.1392 33.3694 38.1439C33.3349 38.1485 33.2998 38.1452 33.2667 38.1342C33.2337 38.1233 33.2036 38.1049 33.1787 38.0805C33.1539 38.0562 33.135 38.0265 33.1235 37.9938C33.107 37.9627 33.0969 37.9287 33.0937 37.8937C33.0906 37.8587 33.0944 37.8235 33.105 37.79C33.1156 37.7565 33.1328 37.7254 33.1556 37.6986C33.1784 37.6718 33.2062 37.6497 33.2376 37.6337L34.1128 37.2358C34.1761 37.2099 34.2469 37.2092 34.3107 37.2339C34.3744 37.2586 34.4262 37.3068 34.4553 37.3684C34.4746 37.3973 34.4871 37.4302 34.4918 37.4645C34.4965 37.4989 34.4932 37.534 34.4821 37.5669C34.4711 37.5998 34.4527 37.6298 34.4282 37.6545C34.4038 37.6792 34.374 37.6981 34.3411 37.7095Z" fill="#284464"/>
<path d="M30.8594 39.3013L30.3457 39.5666C30.2799 39.6006 30.2033 39.6078 30.1323 39.5865C30.0613 39.5653 30.0013 39.5174 29.9652 39.4529C29.9382 39.3872 29.9369 39.3138 29.9616 39.2471C29.9862 39.1805 30.035 39.1255 30.0983 39.0929L30.612 38.8276C30.6432 38.8112 30.6774 38.8011 30.7125 38.7979C30.7476 38.7948 30.783 38.7986 30.8166 38.8092C30.8503 38.8198 30.8814 38.8369 30.9084 38.8596C30.9353 38.8822 30.9574 38.91 30.9735 38.9413C30.99 38.9723 31.0001 39.0063 31.0033 39.0413C31.0064 39.0763 31.0026 39.1116 30.992 39.1451C30.9814 39.1786 30.9642 39.2096 30.9414 39.2364C30.9186 39.2633 30.8908 39.2853 30.8594 39.3013Z" fill="#284464"/>
<path d="M29.2232 40.2488L28.5764 40.6467C28.5516 40.6719 28.522 40.692 28.4893 40.7056C28.4566 40.7193 28.4215 40.7263 28.3861 40.7263C28.3507 40.7263 28.3156 40.7193 28.2829 40.7056C28.2503 40.692 28.2207 40.6719 28.1959 40.6467C28.1601 40.5834 28.15 40.5089 28.1677 40.4384C28.1854 40.3679 28.2295 40.3068 28.291 40.2677L28.9379 39.8508C28.9989 39.8319 29.0647 39.8339 29.1245 39.8566C29.1843 39.8792 29.2347 39.9213 29.2676 39.9759C29.3005 40.0306 29.314 40.0947 29.306 40.1579C29.2979 40.2211 29.2688 40.2798 29.2232 40.3246V40.2488Z" fill="#284464"/>
<path d="M27.0543 41.8026L26.9592 41.8973L26.7499 42.1248C26.6488 42.2399 26.5535 42.3601 26.4645 42.4848C26.4122 42.5314 26.3445 42.5572 26.2743 42.5572C26.2041 42.5572 26.1363 42.5314 26.084 42.4848C26.0317 42.4316 26.0024 42.3602 26.0024 42.2858C26.0024 42.2114 26.0317 42.14 26.084 42.0869L26.3884 41.6889C26.466 41.6021 26.5486 41.5198 26.6358 41.4426V41.3289C26.6907 41.2878 26.7587 41.2679 26.8272 41.2727C26.8957 41.2776 26.9602 41.3069 27.0088 41.3553C27.0574 41.4037 27.0868 41.4679 27.0917 41.5361C27.0965 41.6044 27.0765 41.6721 27.0353 41.7268L27.0543 41.8026Z" fill="#284464"/>
<path d="M25.8747 44.9862V45.5547C25.8747 45.6301 25.8447 45.7023 25.7911 45.7557C25.7376 45.809 25.665 45.8389 25.5893 45.8389C25.5137 45.8389 25.4411 45.809 25.3875 45.7557C25.334 45.7023 25.304 45.6301 25.304 45.5547V44.9862C25.304 44.9108 25.334 44.8385 25.3875 44.7852C25.4411 44.7319 25.5137 44.702 25.5893 44.702C25.665 44.702 25.7376 44.7319 25.7911 44.7852C25.8447 44.8385 25.8747 44.9108 25.8747 44.9862Z" fill="#284464"/>
<path d="M25.9318 46.8811V47.6391C25.9324 47.7133 25.9056 47.7852 25.8565 47.8411C25.8074 47.897 25.7394 47.933 25.6654 47.9423C25.5927 47.9477 25.5206 47.9252 25.464 47.8794C25.4074 47.8336 25.3705 47.7679 25.361 47.6959V46.9379C25.3557 46.9006 25.3578 46.8625 25.3674 46.826C25.377 46.7895 25.3938 46.7552 25.4168 46.7252C25.4399 46.6952 25.4687 46.6701 25.5015 46.6513C25.5344 46.6325 25.5707 46.6205 25.6083 46.6158C25.6829 46.6152 25.7551 46.6419 25.8112 46.6908C25.8673 46.7397 25.9034 46.8074 25.9127 46.8811H25.9318Z" fill="#284464"/>
<path d="M26.2171 49.553L26.3313 50.5005C26.3313 50.5708 26.3032 50.6383 26.2532 50.6881C26.2033 50.7378 26.1356 50.7658 26.0649 50.7658C25.9943 50.7658 25.9265 50.7378 25.8766 50.6881C25.8266 50.6383 25.7985 50.5708 25.7985 50.5005L25.6654 49.553C25.6599 49.4806 25.6825 49.4088 25.7285 49.3524C25.7745 49.296 25.8404 49.2593 25.9127 49.2498C25.9477 49.2445 25.9835 49.2461 26.0179 49.2547C26.0522 49.2633 26.0845 49.2786 26.1129 49.2998C26.1412 49.321 26.165 49.3476 26.1829 49.3781C26.2008 49.4085 26.2124 49.4422 26.2171 49.4772V49.553Z" fill="#284464"/>
<path d="M26.6738 53.3618V53.9303C26.6738 54.0007 26.6458 54.0682 26.5958 54.1179C26.5459 54.1677 26.4781 54.1956 26.4075 54.1956C26.3368 54.1956 26.2691 54.1677 26.2191 54.1179C26.1692 54.0682 26.1411 54.0007 26.1411 53.9303V53.3618C26.1385 53.327 26.1429 53.292 26.1539 53.2588C26.165 53.2256 26.1825 53.1949 26.2055 53.1685C26.2285 53.1421 26.2564 53.1205 26.2878 53.1049C26.3192 53.0893 26.3534 53.08 26.3884 53.0776C26.4612 53.0722 26.5333 53.0946 26.5899 53.1404C26.6465 53.1863 26.6833 53.2519 26.6928 53.3239L26.6738 53.3618Z" fill="#284464"/>
<path d="M26.807 55.2757V56.0337C26.807 56.1041 26.7789 56.1716 26.729 56.2213C26.679 56.2711 26.6113 56.299 26.5407 56.299C26.4732 56.2992 26.4082 56.2738 26.3587 56.2281C26.3093 56.1824 26.2791 56.1197 26.2743 56.0527V55.2947C26.2717 55.2598 26.2761 55.2248 26.2871 55.1916C26.2981 55.1585 26.3157 55.1278 26.3386 55.1014C26.3616 55.0749 26.3896 55.0533 26.421 55.0377C26.4524 55.0221 26.4866 55.0128 26.5216 55.0104C26.5941 55.0103 26.664 55.0376 26.717 55.0869C26.77 55.1361 26.8022 55.2037 26.807 55.2757Z" fill="#284464"/>
<path d="M26.7688 57.9666V58.4404C26.7688 58.6867 26.7688 58.933 26.7688 58.933C26.755 59.0002 26.7156 59.0595 26.6588 59.0984C26.6021 59.1372 26.5324 59.1527 26.4644 59.1415C26.4318 59.1369 26.4004 59.1258 26.3721 59.1089C26.3438 59.0921 26.3192 59.0697 26.2997 59.0433C26.2802 59.0168 26.2662 58.9867 26.2586 58.9547C26.2509 58.9228 26.2498 58.8896 26.2552 58.8572C26.2552 58.8572 26.2552 58.6298 26.2552 58.4024V57.9287C26.2551 57.8947 26.262 57.861 26.2756 57.8299C26.2892 57.7987 26.3092 57.7706 26.3342 57.7474C26.3592 57.7243 26.3888 57.7066 26.421 57.6954C26.4533 57.6842 26.4875 57.6797 26.5215 57.6824C26.5565 57.6848 26.5907 57.694 26.6221 57.7096C26.6535 57.7252 26.6815 57.7469 26.7045 57.7733C26.7275 57.7997 26.745 57.8304 26.756 57.8635C26.7671 57.8967 26.7714 57.9318 26.7688 57.9666Z" fill="#284464"/>
<path d="M25.9888 61.7565V61.8513V62.0408L25.8747 62.3061C25.8495 62.3664 25.8012 62.4142 25.7405 62.4391C25.6799 62.464 25.6118 62.4638 25.5512 62.4387C25.4907 62.4136 25.4427 62.3655 25.4177 62.3051C25.3927 62.2447 25.3928 62.1769 25.4181 62.1166V61.8513V61.6807V61.586C25.4435 61.5253 25.4907 61.4761 25.5505 61.4481C25.6102 61.4201 25.6783 61.4152 25.7415 61.4344C25.7732 61.4449 25.8024 61.4618 25.8273 61.4839C25.8523 61.506 25.8725 61.533 25.8867 61.5631C25.9009 61.5932 25.9089 61.6258 25.9101 61.6591C25.9113 61.6923 25.9057 61.7255 25.8937 61.7565H25.9888Z" fill="#284464"/>
<path d="M25.1518 63.5377V63.6325L24.9995 63.8599L24.7903 64.201C24.7735 64.2316 24.7505 64.2584 24.7226 64.2795C24.6947 64.3006 24.6626 64.3155 24.6285 64.3233C24.5943 64.3311 24.5589 64.3317 24.5246 64.3248C24.4903 64.318 24.4578 64.304 24.4293 64.2837C24.4008 64.2634 24.3769 64.2374 24.3593 64.2072C24.3417 64.1771 24.3307 64.1436 24.327 64.1089C24.3234 64.0742 24.3272 64.0391 24.3382 64.006C24.3491 63.9729 24.3671 63.9425 24.3907 63.9168L24.581 63.6136L24.7142 63.3862V63.2914C24.7602 63.2474 24.8216 63.2228 24.8854 63.2228C24.9492 63.2228 25.0106 63.2474 25.0566 63.2914C25.0955 63.3362 25.1168 63.3933 25.1168 63.4525C25.1168 63.5116 25.0955 63.5688 25.0566 63.6136L25.1518 63.5377Z" fill="#284464"/>
<path d="M23.5345 65.698L23.4204 65.8117L23.173 66.0391L22.7925 66.3423C22.7711 66.3665 22.7448 66.3858 22.7152 66.3991C22.6857 66.4124 22.6537 66.4192 22.6213 66.4192C22.5889 66.4192 22.5569 66.4124 22.5274 66.3991C22.4979 66.3858 22.4715 66.3665 22.4501 66.3423C22.4288 66.3211 22.4119 66.296 22.4004 66.2684C22.3889 66.2408 22.3829 66.2111 22.3829 66.1812C22.3829 66.1513 22.3889 66.1216 22.4004 66.094C22.4119 66.0663 22.4288 66.0413 22.4501 66.0201L22.8116 65.7169L23.0399 65.4896L23.154 65.3948C23.2016 65.3637 23.2584 65.3499 23.315 65.3557C23.3715 65.3615 23.4243 65.3866 23.4645 65.4266C23.5047 65.4667 23.5299 65.5192 23.5357 65.5756C23.5415 65.6319 23.5277 65.6885 23.4965 65.7359L23.5345 65.698Z" fill="#284464"/>
<path d="M20.2242 67.7256L19.6914 67.9151C19.6627 67.9239 19.6325 67.9269 19.6026 67.924C19.5727 67.9211 19.5437 67.9124 19.5172 67.8983C19.4906 67.8842 19.4672 67.8651 19.4481 67.8419C19.4291 67.8188 19.4148 67.7921 19.4061 67.7635C19.3874 67.7082 19.3908 67.6478 19.4156 67.5948C19.4404 67.5419 19.4847 67.5005 19.5393 67.4792L20.091 67.2898C20.1197 67.281 20.1499 67.278 20.1798 67.2809C20.2097 67.2837 20.2388 67.2924 20.2653 67.3065C20.2918 67.3206 20.3153 67.3398 20.3343 67.3629C20.3534 67.3861 20.3677 67.4127 20.3764 67.4414C20.3951 67.4967 20.3917 67.5571 20.3669 67.61C20.3421 67.6629 20.2978 67.7043 20.2432 67.7256H20.2242Z" fill="#284464"/>
<path d="M18.3406 68.2562H18.2265H17.9601H17.5416C17.5141 68.2588 17.4863 68.2559 17.4599 68.2478C17.4335 68.2397 17.409 68.2264 17.3878 68.2088C17.3665 68.1912 17.349 68.1695 17.3362 68.1452C17.3234 68.1208 17.3156 68.0941 17.3132 68.0666C17.3106 68.0377 17.314 68.0086 17.3234 67.9811C17.3327 67.9535 17.3477 67.9283 17.3674 67.9069C17.3871 67.8855 17.4111 67.8684 17.4378 67.8567C17.4645 67.8451 17.4934 67.8391 17.5225 67.8393H17.884H18.1504H18.2645C18.2986 67.8291 18.3346 67.8271 18.3696 67.8333C18.4046 67.8395 18.4377 67.8537 18.4662 67.8749C18.4947 67.896 18.5178 67.9235 18.5338 67.9552C18.5497 67.9868 18.558 68.0218 18.558 68.0572C18.558 68.0926 18.5497 68.1275 18.5338 68.1592C18.5178 68.1908 18.4947 68.2183 18.4662 68.2395C18.4377 68.2607 18.4046 68.2749 18.3696 68.2811C18.3346 68.2873 18.2986 68.2852 18.2645 68.2751L18.3406 68.2562Z" fill="#284464"/>
<path d="M15.639 68.2562H15.5058H15.1633L14.6877 68.1425C14.662 68.1361 14.638 68.1244 14.6172 68.1082C14.5963 68.0921 14.5791 68.0717 14.5666 68.0486C14.554 68.0254 14.5465 67.9999 14.5444 67.9736C14.5423 67.9474 14.5458 67.921 14.5545 67.8962C14.5586 67.8713 14.5681 67.8477 14.5824 67.8269C14.5967 67.8062 14.6154 67.7889 14.6372 67.7762C14.6591 67.7635 14.6834 67.7558 14.7086 67.7536C14.7338 67.7514 14.7591 67.7548 14.7828 67.7635L15.2394 67.8583H15.5629H15.639C15.6659 67.8604 15.692 67.8682 15.7157 67.8812C15.7393 67.8941 15.7599 67.912 15.7761 67.9335C15.7923 67.955 15.8037 67.9797 15.8096 68.0059C15.8155 68.0322 15.8157 68.0593 15.8102 68.0857C15.8008 68.1376 15.7721 68.184 15.7297 68.2157C15.6874 68.2473 15.6345 68.2618 15.5819 68.2562H15.639Z" fill="#284464"/>
<path d="M36.4148 18.5705H36.0533H35.6728C35.6223 18.5705 35.5739 18.5505 35.5383 18.515C35.5026 18.4795 35.4825 18.4313 35.4825 18.381C35.4825 18.3308 35.5026 18.2825 35.5383 18.247C35.5739 18.2115 35.6223 18.1915 35.6728 18.1915H36.0533H36.4528C36.5026 18.2125 36.5422 18.2519 36.5635 18.3013C36.5848 18.3507 36.586 18.4065 36.567 18.4568C36.5696 18.4817 36.5673 18.5069 36.5601 18.5309C36.5529 18.5549 36.541 18.5772 36.525 18.5966C36.5091 18.616 36.4895 18.632 36.4673 18.6438C36.4451 18.6556 36.4208 18.6629 36.3958 18.6653L36.4148 18.5705Z" fill="#284464"/>
<path d="M33.8654 19.1959H33.7323L33.4278 19.3096L32.9903 19.4991C32.9668 19.5117 32.9409 19.5192 32.9143 19.5213C32.8877 19.5233 32.861 19.5197 32.8359 19.5108C32.8108 19.5019 32.7878 19.4878 32.7685 19.4694C32.7493 19.4511 32.734 19.4289 32.7239 19.4043C32.6878 19.3657 32.6677 19.315 32.6677 19.2622C32.6677 19.2095 32.6878 19.1587 32.7239 19.1201L33.1805 18.9306L33.4849 18.8169H33.6181C33.6686 18.798 33.7246 18.7992 33.7742 18.8204C33.8239 18.8416 33.8634 18.8811 33.8845 18.9306C33.8967 18.9552 33.9035 18.9821 33.9042 19.0096C33.905 19.037 33.8998 19.0643 33.8889 19.0895C33.8781 19.1147 33.8618 19.1373 33.8414 19.1557C33.8209 19.1741 33.7966 19.1878 33.7703 19.1959H33.8654Z" fill="#284464"/>
<path d="M30.7263 21.1476L30.6121 21.2803L30.4409 21.4887C30.4197 21.5099 30.3945 21.5267 30.3667 21.5382C30.339 21.5497 30.3092 21.5556 30.2792 21.5556C30.2491 21.5556 30.2194 21.5497 30.1916 21.5382C30.1638 21.5267 30.1387 21.5099 30.1174 21.4887C30.0962 21.4676 30.0793 21.4425 30.0677 21.4149C30.0562 21.3872 30.0503 21.3576 30.0503 21.3277C30.0503 21.2977 30.0562 21.2681 30.0677 21.2405C30.0793 21.2128 30.0962 21.1877 30.1174 21.1666C30.174 21.0854 30.2377 21.0093 30.3077 20.9392L30.4409 20.7876C30.4812 20.7424 30.538 20.715 30.5987 20.7114C30.6593 20.7079 30.7189 20.7285 30.7643 20.7687C30.8097 20.8089 30.8372 20.8654 30.8408 20.9258C30.8444 20.9862 30.8237 21.0456 30.7833 21.0908L30.7263 21.1476Z" fill="#284464"/>
<path d="M29.7749 22.6826V22.7774V23.0237V23.3838C29.7733 23.415 29.7646 23.4455 29.7495 23.473C29.7343 23.5005 29.7132 23.5242 29.6876 23.5424C29.662 23.5606 29.6326 23.5728 29.6016 23.5782C29.5706 23.5835 29.5388 23.5818 29.5086 23.5732C29.4767 23.571 29.4457 23.5622 29.4175 23.5474C29.3893 23.5325 29.3645 23.5119 29.3448 23.4869C29.3251 23.4619 29.3108 23.433 29.303 23.4022C29.2952 23.3714 29.2939 23.3393 29.2993 23.3079V22.91C29.2993 22.91 29.2993 22.7205 29.2993 22.6447V22.531C29.3078 22.5001 29.3226 22.4714 29.343 22.4467C29.3634 22.4219 29.3887 22.4017 29.4175 22.3874C29.4462 22.3731 29.4776 22.365 29.5097 22.3636C29.5418 22.3622 29.5738 22.3676 29.6037 22.3794C29.6325 22.3881 29.6592 22.4023 29.6825 22.4213C29.7057 22.4403 29.7249 22.4637 29.7391 22.4901C29.7532 22.5165 29.762 22.5454 29.7649 22.5752C29.7678 22.605 29.7647 22.635 29.7559 22.6637L29.7749 22.6826Z" fill="#284464"/>
<path d="M29.6228 25.2219L29.7179 26.1693C29.7233 26.2007 29.722 26.2328 29.7142 26.2636C29.7064 26.2944 29.6921 26.3233 29.6724 26.3483C29.6527 26.3733 29.6279 26.3938 29.5997 26.4087C29.5715 26.4236 29.5405 26.4324 29.5086 26.4346C29.4772 26.44 29.4449 26.4387 29.414 26.4309C29.383 26.4231 29.3541 26.4089 29.329 26.3893C29.3039 26.3696 29.2832 26.345 29.2682 26.3169C29.2533 26.2888 29.2445 26.2579 29.2423 26.2262L29.1471 25.2787C29.1381 25.247 29.1367 25.2137 29.1431 25.1814C29.1495 25.1491 29.1635 25.1188 29.1839 25.0929C29.2043 25.067 29.2306 25.0463 29.2606 25.0325C29.2905 25.0187 29.3234 25.0122 29.3564 25.0134C29.3879 25.008 29.4201 25.0093 29.4511 25.0171C29.482 25.0249 29.511 25.0391 29.5361 25.0587C29.5612 25.0784 29.5818 25.103 29.5968 25.1311C29.6117 25.1592 29.6206 25.1901 29.6228 25.2219Z" fill="#284464"/>
<path d="M30.0794 29.0117V29.5802C30.082 29.6126 30.0781 29.6451 30.0681 29.676C30.058 29.7069 30.0419 29.7355 30.0206 29.7601C29.9994 29.7848 29.9735 29.805 29.9444 29.8197C29.9153 29.8343 29.8836 29.8431 29.8511 29.8455C29.8181 29.8511 29.7843 29.8493 29.752 29.8404C29.7197 29.8315 29.6899 29.8156 29.6644 29.7939C29.639 29.7722 29.6187 29.7452 29.6049 29.7149C29.5912 29.6845 29.5843 29.6515 29.5847 29.6181V29.0496C29.5841 28.9854 29.6068 28.923 29.6488 28.8743C29.6908 28.8255 29.7492 28.7935 29.813 28.7843C29.8776 28.7837 29.9401 28.8064 29.9891 28.8482C30.0381 28.89 30.0702 28.9481 30.0794 29.0117Z" fill="#284464"/>
<path d="M30.1554 30.9445V31.3425C30.1663 31.4686 30.1663 31.5954 30.1554 31.7215C30.1554 31.7868 30.1294 31.8495 30.083 31.8957C30.0366 31.9419 29.9737 31.9678 29.9081 31.9678C29.8425 31.9678 29.7796 31.9419 29.7332 31.8957C29.6868 31.8495 29.6608 31.7868 29.6608 31.7215V31.3614V30.9824C29.6656 30.9154 29.6958 30.8527 29.7452 30.807C29.7946 30.7613 29.8597 30.7359 29.9271 30.7361C29.9813 30.7453 30.0316 30.7698 30.0721 30.8068C30.1126 30.8438 30.1415 30.8916 30.1554 30.9445Z" fill="#284464"/>
<path d="M29.4134 33.6164L29.1851 33.9007L28.9187 34.147C28.8956 34.1717 28.8676 34.1914 28.8365 34.2048C28.8054 34.2183 28.7719 34.2252 28.738 34.2252C28.7041 34.2252 28.6706 34.2183 28.6395 34.2048C28.6084 34.1914 28.5804 34.1717 28.5573 34.147C28.5325 34.124 28.5127 34.0961 28.4992 34.0651C28.4857 34.0342 28.4788 34.0008 28.4788 33.967C28.4788 33.9332 28.4857 33.8998 28.4992 33.8689C28.5127 33.8379 28.5325 33.81 28.5573 33.787L28.6524 33.6922C28.742 33.6391 28.8197 33.5681 28.8807 33.4838L29.0709 33.2564C29.0941 33.2317 29.1221 33.212 29.1532 33.1986C29.1842 33.1851 29.2178 33.1782 29.2517 33.1782C29.2856 33.1782 29.3191 33.1851 29.3502 33.1986C29.3813 33.212 29.4093 33.2317 29.4324 33.2564C29.459 33.2791 29.48 33.3075 29.4938 33.3395C29.5076 33.3715 29.5138 33.4063 29.5119 33.4411C29.5101 33.4759 29.5003 33.5098 29.4832 33.5402C29.4661 33.5706 29.4422 33.5967 29.4134 33.6164Z" fill="#284464"/>
<path d="M26.2172 35.8904L25.6845 36.1178C25.6189 36.1455 25.5449 36.146 25.4789 36.1193C25.4129 36.0927 25.3603 36.041 25.3325 35.9757C25.3048 35.9103 25.3042 35.8367 25.331 35.771C25.3577 35.7052 25.4096 35.6528 25.4752 35.6251L26.0079 35.3977C26.0712 35.3718 26.142 35.3711 26.2058 35.3958C26.2695 35.4205 26.3213 35.4687 26.3504 35.5304C26.3773 35.5961 26.3786 35.6695 26.354 35.7361C26.3293 35.8028 26.2805 35.8578 26.2172 35.8904Z" fill="#284464"/>
<path d="M24.4097 36.5916L23.6867 36.8379C23.6186 36.8568 23.5458 36.8498 23.4825 36.8183C23.4193 36.7868 23.37 36.733 23.3443 36.6673C23.3293 36.634 23.3219 36.5979 23.3227 36.5614C23.3235 36.5249 23.3324 36.489 23.3487 36.4564C23.3651 36.4237 23.3886 36.3951 23.4174 36.3726C23.4463 36.3501 23.4798 36.3343 23.5155 36.3262L24.2385 36.0799C24.2722 36.0687 24.3078 36.0642 24.3433 36.0668C24.3788 36.0693 24.4134 36.0787 24.4452 36.0945C24.477 36.1104 24.5053 36.1323 24.5286 36.1591C24.5519 36.1858 24.5697 36.2169 24.5809 36.2505C24.5922 36.284 24.5967 36.3195 24.5942 36.3548C24.5916 36.3902 24.5821 36.4246 24.5662 36.4563C24.5503 36.488 24.5283 36.5162 24.5015 36.5394C24.4746 36.5626 24.4434 36.5804 24.4097 36.5916Z" fill="#284464"/>
<path d="M21.8222 37.4064L20.909 37.6527C20.8359 37.6699 20.7589 37.6576 20.6948 37.6186C20.6307 37.5796 20.5846 37.5169 20.5666 37.4443C20.5538 37.3768 20.5661 37.3069 20.6011 37.2477C20.636 37.1885 20.6914 37.1439 20.7568 37.1221L21.6891 36.8758C21.7596 36.8579 21.8344 36.8675 21.8981 36.9028C21.9618 36.938 22.0095 36.9962 22.0315 37.0653C22.0487 37.1381 22.0364 37.2148 21.9973 37.2787C21.9581 37.3425 21.8952 37.3884 21.8222 37.4064Z" fill="#284464"/>
<path d="M18.1313 38.3159L17.5795 38.4675C17.5064 38.4862 17.4289 38.4772 17.3621 38.4422C17.2953 38.4071 17.244 38.3487 17.218 38.2781C17.2008 38.2052 17.2131 38.1285 17.2523 38.0647C17.2915 38.0008 17.3544 37.9549 17.4273 37.937L17.9791 37.7854C18.0166 37.7639 18.0586 37.7512 18.1018 37.7483C18.145 37.7454 18.1884 37.7523 18.2285 37.7685C18.2686 37.7848 18.3045 37.8099 18.3335 37.842C18.3624 37.8741 18.3836 37.9123 18.3955 37.9538C18.4074 37.9953 18.4097 38.0389 18.4022 38.0814C18.3946 38.1239 18.3775 38.1641 18.352 38.199C18.3265 38.2339 18.2934 38.2626 18.2552 38.2828C18.2169 38.3031 18.1746 38.3144 18.1313 38.3159Z" fill="#284464"/>
<path d="M16.3048 38.8465L15.5819 39.0929C15.5456 39.1045 15.5074 39.1089 15.4695 39.1056C15.4316 39.1024 15.3947 39.0916 15.361 39.074C15.3273 39.0563 15.2975 39.0321 15.2734 39.0028C15.2492 38.9735 15.2312 38.9397 15.2204 38.9034C15.2054 38.8687 15.198 38.8313 15.1987 38.7937C15.1993 38.756 15.2081 38.7189 15.2243 38.6848C15.2405 38.6507 15.2638 38.6205 15.2926 38.5961C15.3215 38.5717 15.3552 38.5537 15.3916 38.5433L16.1336 38.3159C16.167 38.301 16.2034 38.2936 16.24 38.2944C16.2766 38.2952 16.3126 38.3041 16.3454 38.3204C16.3782 38.3367 16.4069 38.3601 16.4295 38.3888C16.4521 38.4175 16.468 38.4509 16.4761 38.4865C16.491 38.5211 16.4984 38.5585 16.4978 38.5962C16.4971 38.6339 16.4884 38.671 16.4722 38.7051C16.456 38.7391 16.4327 38.7694 16.4038 38.7938C16.3749 38.8182 16.3412 38.8361 16.3048 38.8465Z" fill="#284464"/>
<path d="M13.8315 39.775H13.6983L13.4129 39.9266L12.9944 40.1351C12.9617 40.1609 12.9237 40.1793 12.8831 40.189C12.8425 40.1986 12.8003 40.1993 12.7594 40.1909C12.7185 40.1825 12.68 40.1653 12.6465 40.1405C12.613 40.1157 12.5854 40.0839 12.5656 40.0473C12.5458 40.0107 12.5343 39.9702 12.532 39.9286C12.5296 39.8871 12.5364 39.8456 12.5519 39.807C12.5673 39.7684 12.5911 39.7337 12.6216 39.7052C12.652 39.6768 12.6884 39.6553 12.728 39.6424L13.1466 39.415L13.451 39.2634H13.5842C13.6523 39.2308 13.7306 39.2265 13.802 39.2513C13.8733 39.2762 13.9318 39.3282 13.9647 39.396C13.9837 39.4291 13.9954 39.4658 13.999 39.5037C14.0025 39.5417 13.9978 39.5799 13.9851 39.6159C13.9725 39.6518 13.9522 39.6847 13.9257 39.7121C13.8992 39.7396 13.8671 39.761 13.8315 39.775Z" fill="#284464"/>
<path d="M10.7874 41.8595L10.6542 42.0111C10.5913 42.0755 10.534 42.1453 10.483 42.2195C10.458 42.2477 10.4273 42.2703 10.3928 42.2858C10.3584 42.3013 10.321 42.3093 10.2833 42.3093C10.2455 42.3093 10.2081 42.3013 10.1737 42.2858C10.1392 42.2703 10.1085 42.2477 10.0835 42.2195C10.0582 42.1948 10.0381 42.1653 10.0243 42.1328C10.0106 42.1002 10.0035 42.0653 10.0035 42.03C10.0035 41.9947 10.0106 41.9598 10.0243 41.9272C10.0381 41.8947 10.0582 41.8652 10.0835 41.8405L10.2737 41.6131L10.4069 41.4615C10.4603 41.4094 10.532 41.3803 10.6067 41.3803C10.6814 41.3803 10.7531 41.4094 10.8065 41.4615C10.8587 41.5147 10.888 41.5861 10.888 41.6605C10.888 41.7349 10.8587 41.8063 10.8065 41.8595H10.7874Z" fill="#284464"/>
<path d="M9.72203 43.3565V43.4512V43.6786L9.56982 44.0197C9.53239 44.0714 9.47861 44.1091 9.4171 44.1267C9.3556 44.1442 9.28994 44.1407 9.23068 44.1167C9.17142 44.0926 9.12201 44.0494 9.09035 43.994C9.05869 43.9387 9.04664 43.8743 9.05614 43.8113L9.20835 43.4512C9.23902 43.3659 9.27722 43.2835 9.32249 43.2049V43.0912C9.35866 43.0267 9.4186 42.9788 9.48962 42.9576C9.56065 42.9364 9.63717 42.9435 9.703 42.9775C9.73439 42.9935 9.76229 43.0156 9.78505 43.0424C9.80782 43.0692 9.82501 43.1003 9.83562 43.1338C9.84624 43.1672 9.85007 43.2025 9.8469 43.2375C9.84373 43.2725 9.83363 43.3065 9.81716 43.3375L9.72203 43.3565Z" fill="#284464"/>
<path d="M8.88488 45.801L8.6756 46.7295C8.66046 46.7999 8.61788 46.8614 8.55723 46.9005C8.49657 46.9396 8.42281 46.9531 8.35217 46.938C8.28153 46.9229 8.21979 46.8805 8.18054 46.8201C8.14129 46.7597 8.12775 46.6862 8.14289 46.6158L8.35217 45.6873C8.35967 45.6525 8.37398 45.6194 8.39429 45.5901C8.41461 45.5608 8.44051 45.5357 8.47054 45.5163C8.50058 45.497 8.53415 45.4837 8.56934 45.4773C8.60452 45.4709 8.64062 45.4714 8.6756 45.4788C8.71058 45.4863 8.74374 45.5006 8.77319 45.5208C8.80264 45.541 8.8278 45.5668 8.84723 45.5968C8.86666 45.6267 8.87999 45.6601 8.88645 45.6952C8.89291 45.7302 8.89238 45.7661 8.88488 45.801Z" fill="#284464"/>
<path d="M8.27611 49.5151V50.0836C8.27654 50.1194 8.26914 50.1548 8.2544 50.1875C8.23966 50.2201 8.21796 50.2492 8.19079 50.2727C8.16363 50.2961 8.13166 50.3134 8.09711 50.3233C8.06256 50.3332 8.02626 50.3354 7.99074 50.3299C7.95573 50.3275 7.92154 50.3182 7.89014 50.3026C7.85874 50.287 7.83073 50.2654 7.80775 50.239C7.78477 50.2126 7.76725 50.1819 7.7562 50.1487C7.74516 50.1155 7.74081 50.0805 7.7434 50.0457V49.4772C7.75292 49.4051 7.78978 49.3395 7.84639 49.2937C7.903 49.2479 7.97508 49.2254 8.04782 49.2308C8.08283 49.2332 8.11701 49.2425 8.14841 49.2581C8.17981 49.2737 8.20781 49.2953 8.2308 49.3217C8.25378 49.3482 8.2713 49.3788 8.28234 49.412C8.29338 49.4452 8.29773 49.4802 8.29514 49.5151H8.27611Z" fill="#284464"/>
<path d="M8.16188 51.41V52.168C8.16188 52.2384 8.13381 52.3059 8.08386 52.3556C8.0339 52.4054 7.96616 52.4333 7.89552 52.4333C7.82976 52.4246 7.7691 52.3934 7.72396 52.345C7.67883 52.2966 7.65204 52.234 7.64819 52.168V51.3911C7.65301 51.3241 7.68318 51.2614 7.73261 51.2156C7.78205 51.1699 7.84708 51.1446 7.91455 51.1447C7.98519 51.1447 8.05293 51.1727 8.10289 51.2224C8.15284 51.2722 8.18091 51.3397 8.18091 51.41H8.16188Z" fill="#284464"/>
<path d="M8.19998 54.044V55.0105C8.20257 55.0428 8.19872 55.0754 8.18864 55.1063C8.17856 55.1372 8.16244 55.1658 8.14122 55.1904C8.12 55.2151 8.09411 55.2353 8.06501 55.25C8.03592 55.2646 8.00419 55.2734 7.97168 55.2757C7.93764 55.2784 7.90341 55.2739 7.87118 55.2627C7.83894 55.2515 7.80938 55.2338 7.78436 55.2107C7.75934 55.1875 7.73939 55.1595 7.72579 55.1283C7.71219 55.0971 7.70522 55.0634 7.70532 55.0294V54.0819C7.7027 54.048 7.70714 54.0139 7.71839 53.9818C7.72964 53.9497 7.74744 53.9203 7.77067 53.8954C7.79391 53.8704 7.82208 53.8506 7.85339 53.837C7.88471 53.8235 7.9185 53.8165 7.95265 53.8166C7.98515 53.8141 8.01784 53.8179 8.04884 53.8279C8.07985 53.838 8.10855 53.854 8.13331 53.8752C8.15806 53.8963 8.17837 53.9221 8.19308 53.9511C8.20779 53.9801 8.2166 54.0117 8.21901 54.044H8.19998Z" fill="#284464"/>
<path d="M8.61854 57.815V58.3835C8.62394 58.4148 8.62268 58.4469 8.61484 58.4777C8.607 58.5086 8.59277 58.5374 8.57305 58.5624C8.55333 58.5874 8.52855 58.608 8.50034 58.6229C8.47213 58.6377 8.4411 58.6466 8.40926 58.6488C8.37923 58.6542 8.34843 58.6535 8.31865 58.6469C8.28888 58.6402 8.26073 58.6277 8.2359 58.61C8.21107 58.5924 8.19005 58.5699 8.17408 58.544C8.15811 58.5181 8.1475 58.4893 8.1429 58.4593V57.8908C8.13428 57.8606 8.13259 57.829 8.13795 57.7981C8.14331 57.7672 8.1556 57.738 8.17388 57.7125C8.19216 57.687 8.21597 57.6659 8.24355 57.6509C8.27113 57.6358 8.30176 57.6271 8.33317 57.6255C8.36452 57.6171 8.39729 57.6155 8.42932 57.6207C8.46135 57.626 8.49189 57.638 8.51889 57.6559C8.5459 57.6739 8.56876 57.6973 8.58594 57.7247C8.60312 57.7522 8.61424 57.7829 8.61854 57.815Z" fill="#284464"/>
<path d="M8.97999 59.672L9.15121 60.4111C9.15871 60.4409 9.16023 60.472 9.15568 60.5024C9.15113 60.5328 9.14061 60.5621 9.12471 60.5885C9.10881 60.6149 9.08785 60.6379 9.06302 60.6562C9.03818 60.6746 9.00997 60.6878 8.97999 60.6953C8.95001 60.7028 8.91885 60.7043 8.88828 60.6997C8.85771 60.6952 8.82833 60.6847 8.80183 60.6689C8.77533 60.6531 8.75222 60.6322 8.73382 60.6074C8.71542 60.5827 8.7021 60.5546 8.6946 60.5248L8.52338 59.7857C8.51147 59.7559 8.50663 59.7238 8.50923 59.6918C8.51183 59.6598 8.52179 59.6289 8.53836 59.6014C8.55493 59.5739 8.57765 59.5506 8.60475 59.5332C8.63185 59.5159 8.6626 59.5051 8.6946 59.5015C8.72342 59.493 8.75373 59.4909 8.78347 59.4951C8.8132 59.4994 8.84167 59.5099 8.86694 59.5261C8.89221 59.5423 8.91369 59.5637 8.92991 59.5889C8.94613 59.6141 8.95672 59.6424 8.96096 59.672H8.97999Z" fill="#284464"/>
<path d="M9.66494 62.2302L9.96934 63.1209C9.98836 63.1712 9.98711 63.2269 9.96583 63.2764C9.94456 63.3258 9.90492 63.3652 9.8552 63.3862C9.80195 63.406 9.7432 63.4053 9.69042 63.3843C9.63764 63.3633 9.59463 63.3234 9.56981 63.2724L9.24638 62.3629C9.23746 62.3368 9.23383 62.3091 9.23571 62.2816C9.23759 62.2541 9.24494 62.2272 9.25732 62.2025C9.26971 62.1778 9.2869 62.1558 9.30788 62.1378C9.32886 62.1198 9.35322 62.1061 9.37956 62.0976C9.40562 62.0852 9.43398 62.0784 9.46283 62.0775C9.49169 62.0765 9.52042 62.0816 9.54722 62.0923C9.57403 62.1029 9.59832 62.119 9.61858 62.1395C9.63884 62.16 9.65462 62.1844 9.66494 62.2113V62.2302Z" fill="#284464"/>
<path d="M11.2822 65.5654L11.4153 65.6791H11.5485C11.5718 65.6854 11.5934 65.6965 11.612 65.7117C11.6307 65.7269 11.6459 65.7459 11.6566 65.7673C11.6674 65.7888 11.6735 65.8123 11.6746 65.8363C11.6756 65.8602 11.6716 65.8841 11.6627 65.9064C11.6586 65.9313 11.6491 65.9549 11.6348 65.9757C11.6205 65.9964 11.6018 66.0137 11.5799 66.0264C11.5581 66.0391 11.5338 66.0468 11.5086 66.049C11.4834 66.0512 11.4581 66.0478 11.4344 66.0391L11.2251 65.9254L11.0539 65.7738C11.0177 65.7352 10.9977 65.6844 10.9977 65.6317C10.9977 65.5789 11.0177 65.5282 11.0539 65.4896C11.0894 65.4549 11.1372 65.4354 11.187 65.4354C11.2368 65.4354 11.2847 65.4549 11.3202 65.4896L11.2822 65.5654Z" fill="#284464"/>
<path d="M82 66.4749C82 71.4776 77.491 84.1359 64.3634 88.6458C59.3406 90.3892 59.2265 84.3254 59.607 84.2117C63.6214 82.9989 70.4135 69.0521 69.6905 66.4749C68.8814 64.5163 67.8334 62.6643 66.5703 60.9606C65.8093 59.8236 64.9532 58.6109 64.059 57.3791C62.1564 54.7452 60.0826 52.0354 58.3513 49.8941C48.6483 37.9938 54.6603 31.2288 60.1397 35.6441C68.0353 42.0301 82 61.548 82 66.4749Z" fill="white"/>
<path d="M38.1271 30.8308H49.5995L57.2858 52.2059L41.5897 54.8778L38.1271 30.8308Z" fill="#93B7E1"/>
<path d="M48.9527 26.0366C44.8432 26.5672 43.245 28.6516 42.0274 24.3122C40.5815 19.3853 32.4195 14.6669 34.7216 6.84074C36.2817 1.59172 40.8478 -0.0379181 45.1285 -0.0379181C47.3398 -0.0102846 49.4935 0.668393 51.3183 1.91267C53.1431 3.15694 54.5575 4.91115 55.3833 6.95443C56.1063 9.17152 55.0408 12.2224 54.4891 14.5342C54.3559 15.1975 53.69 25.4681 48.9527 26.0366Z" fill="#284464"/>
<path d="M41.9893 5.4006H41.8751C41.7678 5.3865 41.659 5.3865 41.5517 5.4006H41.3234H41.057H40.7716L40.4482 5.51429C40.2261 5.6127 40.0305 5.76204 39.8774 5.95012C39.6997 6.16635 39.5466 6.40151 39.4208 6.65127C39.2809 6.93345 39.1601 7.22465 39.0593 7.52294C38.9452 7.82613 38.8501 8.12933 38.7549 8.45147L38.4505 9.39895L38.1271 10.3085C38.0129 10.5928 37.8988 10.877 37.7656 11.1423C37.6324 11.4076 37.4992 11.635 37.3661 11.8624C37.2329 12.0898 37.0807 12.2603 36.9475 12.4119L36.7382 12.6204L36.567 12.772L36.2816 12.9804C36.2716 12.9879 36.2602 12.9933 36.2481 12.9964C36.236 12.9995 36.2234 13.0002 36.2111 12.9984C36.1861 12.9948 36.1636 12.9816 36.1484 12.9615C36.1333 12.9414 36.1268 12.9161 36.1304 12.8912C36.1339 12.8663 36.1473 12.8439 36.1675 12.8288H36.2626C36.3505 12.7591 36.4331 12.6831 36.5099 12.6014L36.6621 12.4498L36.8333 12.2224C36.9735 12.0555 37.1007 11.8781 37.2138 11.6918C37.328 11.4834 37.4612 11.237 37.5753 10.9907C37.6895 10.7444 37.8036 10.4601 37.8988 10.1759C38.108 9.58845 38.2983 8.96312 38.4886 8.28093C38.6598 7.62766 38.8955 6.99291 39.1925 6.38598C39.3183 6.09532 39.4992 5.83153 39.7252 5.60904C39.91 5.4276 40.1302 5.28572 40.3721 5.19215L40.7526 5.07846H41.3995H41.6468C41.7574 5.09949 41.8658 5.13123 41.9702 5.17321H42.0844C42.0844 5.17321 42.0844 5.17321 42.0844 5.28691C42.0844 5.4006 42.0463 5.41955 41.9893 5.4006Z" fill="#284464"/>
<path d="M44.9193 5.77955L44.6149 5.95009L44.2914 6.15853C44.2368 6.21916 44.1726 6.27039 44.1012 6.31013L43.9109 6.48067C43.7748 6.62435 43.6478 6.77624 43.5304 6.93547C43.4073 7.10928 43.2991 7.29313 43.207 7.48502C42.9962 7.91655 42.8488 8.37602 42.7694 8.84936C42.6552 9.3231 42.5982 9.83474 42.503 10.3085C42.4634 10.532 42.4126 10.7533 42.3508 10.9717C42.2853 11.1832 42.1959 11.3866 42.0845 11.5781C41.9968 11.7422 41.8809 11.8897 41.742 12.014L41.5708 12.1466L41.3996 12.2603L41.1522 12.374C41.1345 12.3913 41.1105 12.4011 41.0856 12.4011C41.0607 12.4011 41.0368 12.3913 41.019 12.374V12.2603L41.2283 12.1466H41.3615L41.5137 11.995C41.626 11.8795 41.7162 11.7447 41.7801 11.5971C41.8644 11.4263 41.9344 11.2488 41.9893 11.0665C42.0398 10.8477 42.0779 10.6263 42.1035 10.4032C42.1035 9.94845 42.2367 9.45575 42.3318 8.94411C42.4269 8.43248 42.446 8.43249 42.5221 8.18615C42.5974 7.94492 42.6929 7.7104 42.8074 7.48502C42.9184 7.27508 43.0524 7.07803 43.207 6.89756C43.3328 6.72242 43.4798 6.56332 43.6446 6.42383L43.8729 6.25329L44.0822 6.12065L44.4436 5.91221L44.7671 5.77955C44.7865 5.76567 44.8098 5.75821 44.8337 5.75821C44.8576 5.75821 44.8808 5.76567 44.9003 5.77955C44.9066 5.77902 44.913 5.77902 44.9193 5.77955Z" fill="#284464"/>
<path d="M41.4376 3.82779H40.7146H39.9155H39.4399H39.1735H38.9072C38.5077 3.92065 38.1188 4.05401 37.7466 4.22574C37.318 4.50242 36.9223 4.82662 36.567 5.19215C36.1834 5.4824 35.8382 5.81986 35.5397 6.19648L35.3114 6.49968L35.1021 6.80288L34.9308 7.14395L34.7596 7.46609C34.5703 7.93368 34.4176 8.41519 34.303 8.90627C34.2209 9.38213 34.1764 9.86365 34.1698 10.3464C34.152 11.2165 34.2609 12.0846 34.4933 12.9236C34.5752 13.2577 34.6769 13.5867 34.7977 13.9089C34.7977 14.2121 35.007 14.4585 35.0831 14.6669C35.1592 14.8754 35.2543 15.027 35.2923 15.1407V15.3112C35.2986 15.3224 35.3026 15.3347 35.304 15.3475C35.3055 15.3602 35.3044 15.373 35.3009 15.3854C35.2974 15.3977 35.2914 15.4092 35.2834 15.4192C35.2754 15.4292 35.2655 15.4376 35.2543 15.4439C35.243 15.4501 35.2307 15.454 35.2179 15.4555C35.2051 15.4569 35.1922 15.4559 35.1798 15.4524C35.1674 15.4489 35.1559 15.4429 35.1458 15.435C35.1357 15.427 35.1273 15.4171 35.1211 15.4059V15.2354C35.1211 15.1217 34.9689 14.9701 34.8738 14.7617C34.7786 14.5532 34.6645 14.3069 34.5503 14.0037C34.4362 13.7005 34.322 13.3783 34.2079 12.9993C34.0932 12.5883 34.0042 12.1707 33.9415 11.7487C33.8662 11.2847 33.8217 10.8163 33.8083 10.3464C33.8128 9.83756 33.8638 9.33014 33.9605 8.83046C34.0572 8.31018 34.2104 7.80188 34.4172 7.31449C34.6301 6.83255 34.9051 6.38029 35.2353 5.96909C35.5592 5.5671 35.9296 5.20454 36.3387 4.88896C36.7318 4.61255 37.1526 4.37758 37.5944 4.18783C37.9828 4.00704 38.3916 3.87342 38.8121 3.78988H39.0974H39.3638H39.6302H39.8775C40.1499 3.77264 40.4232 3.77264 40.6956 3.78988H41.4186C41.4186 3.78988 41.4756 3.82779 41.4376 3.82779Z" fill="#284464"/>
<path d="M48.9147 31.134C48.9147 30.6603 48.5912 29.9402 48.401 29.1254C48.2717 28.5401 48.2016 27.9433 48.1917 27.3441C48.1586 25.5088 48.3052 23.6747 48.6293 21.8677L41.6089 14.0226H39.3829C41.9133 20.636 41.0571 27.2873 39.3829 29.7886C39.2497 29.9591 43.949 37.0652 47.3165 36.2693C49.4284 35.7956 48.9718 31.3993 48.9147 31.134Z" fill="#FBC4B6"/>
<path d="M48.401 29.1254C48.2717 28.5401 48.2016 27.9434 48.1917 27.3441C48.1586 25.5089 48.3052 23.6747 48.6293 21.8677L41.4947 18.4568C41.4757 23.2889 44.8622 28.3674 48.401 29.1254Z" fill="#F7A8A7"/>
<path d="M55.3452 18.2673C55.0979 22.7584 52.8338 25.6576 51.0645 26.1503C46.213 27.5147 41.5517 22.9668 40.0487 16.505C39.9994 15.5131 40.0826 14.519 40.296 13.5489C40.5309 13.709 40.7967 13.8187 41.0764 13.871C41.3561 13.9234 41.6438 13.9174 41.921 13.8532C42.1983 13.7891 42.4591 13.6683 42.687 13.4985C42.9149 13.3287 43.1049 13.1135 43.245 12.8667C44.3485 11.1613 44.3485 7.18186 45.9466 6.49968C48.8004 10.7823 52.929 6.13964 54.6793 9.6074C54.9497 11.4291 55.1275 13.2632 55.212 15.1027C55.3574 16.151 55.402 17.2106 55.3452 18.2673Z" fill="#FBC4B6"/>
<path d="M47.2023 19.4422C48.4947 19.4422 49.5425 18.6277 49.5425 17.623C49.5425 16.6183 48.4947 15.8039 47.2023 15.8039C45.9099 15.8039 44.8622 16.6183 44.8622 17.623C44.8622 18.6277 45.9099 19.4422 47.2023 19.4422Z" fill="#F7A8A7"/>
<path d="M55.3453 18.2673C54.9968 18.1825 54.6853 17.9872 54.458 17.7108C54.2306 17.4344 54.0995 17.0919 54.0845 16.7349C54.0694 16.3779 54.1713 16.0257 54.3747 15.7313C54.578 15.4369 54.8719 15.2163 55.2121 15.1027C55.3574 16.151 55.402 17.2106 55.3453 18.2673Z" fill="#F7A8A7"/>
<path d="M45.9466 6.49968C48.8195 10.7823 52.929 6.13964 54.6793 9.6074C52.7768 7.5798 48.5912 11.8055 45.9276 6.51862L45.9466 6.49968Z" fill="#F7A8A7"/>
<path d="M43.245 12.8667C43.8799 11.4459 44.3522 9.95851 44.6529 8.4325C44.3865 10.6306 44.4436 13.0183 43.0547 13.9847C41.6659 14.9511 40.9429 13.9847 40.4102 13.6057C40.6429 13.7502 40.9029 13.8458 41.1741 13.8868C41.4452 13.9278 41.722 13.9133 41.9873 13.8441C42.2527 13.7749 42.5011 13.6526 42.7173 13.4845C42.9335 13.3164 43.1131 13.1062 43.245 12.8667Z" fill="#F7A8A7"/>
<path d="M37.8608 13.1699C36.6432 14.5153 39.7634 19.7833 40.6385 16.4103C40.8583 15.9321 40.9356 15.4012 40.8614 14.8806C40.7872 14.36 40.5646 13.8714 40.22 13.4731C40.089 13.2937 39.9227 13.1428 39.7311 13.0297C39.5396 12.9166 39.3268 12.8436 39.106 12.8152C38.8851 12.7868 38.6608 12.8036 38.4467 12.8646C38.2325 12.9256 38.0332 13.0295 37.8608 13.1699Z" fill="#FBC4B6"/>
<path d="M39.9346 15.9934C39.8024 15.9689 39.678 15.9131 39.572 15.8306C39.466 15.7482 39.3816 15.6415 39.3258 15.5196C39.2935 15.4515 39.2768 15.3771 39.2768 15.3017C39.2768 15.2264 39.2935 15.152 39.3258 15.0838C39.3418 15.0345 39.3418 14.9815 39.3258 14.9322C39.3265 14.7923 39.2942 14.6543 39.2314 14.5292C39.1686 14.4041 39.0771 14.2954 38.9643 14.2121C38.8668 14.1637 38.7593 14.1386 38.6504 14.1386C38.5414 14.1386 38.434 14.1637 38.3364 14.2121C38.2884 14.2257 38.237 14.2217 38.1917 14.2008C38.1463 14.18 38.1099 14.1437 38.0891 14.0984C38.08 14.0748 38.0758 14.0496 38.0766 14.0244C38.0775 13.9991 38.0834 13.9743 38.094 13.9513C38.1047 13.9283 38.1198 13.9077 38.1386 13.8907C38.1573 13.8737 38.1793 13.8605 38.2033 13.8521C38.3629 13.7956 38.5335 13.7764 38.7017 13.7961C38.87 13.8159 39.0314 13.8739 39.1736 13.9658C39.3394 14.0801 39.4747 14.2331 39.5675 14.4115C39.6604 14.5899 39.708 14.7881 39.7063 14.989C39.7441 15.1061 39.7441 15.232 39.7063 15.3491C39.7063 15.4438 39.7063 15.4628 39.7063 15.5007C39.7857 15.5847 39.8833 15.6495 39.9917 15.6902C40.0387 15.6994 40.0806 15.726 40.1088 15.7647C40.137 15.8033 40.1496 15.8512 40.1439 15.8986C40.127 15.9375 40.0962 15.9687 40.0576 15.9862C40.0189 16.0037 39.975 16.0063 39.9346 15.9934Z" fill="#F16A79"/>
<path d="M38.7359 14.9133C38.7007 14.9334 38.66 14.9418 38.6196 14.9373C38.5792 14.9327 38.5414 14.9154 38.5116 14.8879C38.4818 14.8603 38.4617 14.824 38.4541 14.7843C38.4466 14.7445 38.452 14.7034 38.4696 14.6669C38.5166 14.541 38.599 14.4311 38.707 14.3505C38.8149 14.2699 38.9438 14.2218 39.0784 14.2121C39.1976 14.2021 39.3171 14.2274 39.422 14.2847C39.5269 14.342 39.6125 14.4288 39.6682 14.5342C39.6977 14.5686 39.7139 14.6122 39.7139 14.6574C39.7139 14.7026 39.6977 14.7463 39.6682 14.7806C39.6462 14.7931 39.6216 14.8006 39.5963 14.8024C39.5711 14.8043 39.5457 14.8006 39.522 14.7916C39.4983 14.7825 39.477 14.7683 39.4595 14.75C39.442 14.7317 39.4288 14.7098 39.4209 14.6858C39.3975 14.653 39.3658 14.627 39.3291 14.6103C39.2923 14.5937 39.2518 14.5871 39.2116 14.5911C39.1474 14.5888 39.0843 14.6081 39.0325 14.6459C38.9807 14.6838 38.9433 14.7379 38.9262 14.7996C38.9104 14.8359 38.8836 14.8665 38.8494 14.8869C38.8153 14.9073 38.7756 14.9165 38.7359 14.9133Z" fill="#F16A79"/>
<path d="M78.4231 240.166C78.4231 240.166 64.5154 240.299 59.8922 240.299C59.2454 240.299 58.1419 240.45 58.218 239.617C58.3702 237.722 59.6639 234.387 58.979 232.378C60.2727 231.146 65.1242 230.616 65.1242 230.616C65.1242 230.616 65.0291 234.008 66.2087 235.182C67.3883 236.357 72.6964 237.494 75.7215 237.892C76.3283 238.012 76.8945 238.284 77.367 238.682C77.8396 239.08 78.2029 239.59 78.4231 240.166Z" fill="#FBC4B6"/>
<path d="M79.3554 241H58.979C58.5224 241 57.8375 240.678 57.8755 239.446C57.8755 238.878 58.4844 237.703 58.6366 236.585C58.6425 236.557 58.6546 236.531 58.6721 236.508C58.6896 236.486 58.712 236.467 58.7376 236.454C58.7632 236.442 58.7914 236.435 58.82 236.434C58.8486 236.434 58.877 236.44 58.9029 236.452C60.0973 237.222 61.3734 237.857 62.708 238.347C66.6527 239.022 70.6668 239.2 74.656 238.878C75.6644 238.631 75.7595 237.949 75.7595 237.949C77.0901 238.069 78.4117 238.271 79.7168 238.555C81.0106 239.181 79.9832 241 79.3554 241Z" fill="#E9EBEE"/>
<path d="M29.9081 240.166C29.9081 240.166 24.3336 240.299 19.7104 240.299C19.0635 240.299 18.5118 240.45 18.5689 239.617C19.1994 237.137 19.5441 234.594 19.5963 232.037C20.909 230.805 23.6487 229.82 24.7712 230.672C24.7785 233.634 25.9458 236.476 28.0246 238.593C28.9568 239.541 29.9081 240.166 29.9081 240.166Z" fill="#FBC4B6"/>
<path d="M29.7939 240.924H18.7972C18.1313 240.924 18.2645 237.854 18.7972 237.343C19.3299 236.831 18.7972 239.01 19.6343 239.408C20.4714 239.806 22.1076 238.953 22.8876 238.859C23.6677 238.764 28.0436 237.968 29.1661 238.518C30.2886 239.067 30.4218 240.924 29.7939 240.924Z" fill="#E9EBEE"/>
<path d="M65.2956 232.719C63.2346 233.164 61.1171 233.292 59.0172 233.098C58.884 230.218 51.407 199.576 49.2951 178.353C48.9337 174.43 51.0074 166.074 51.1977 161.658C51.5021 155.329 49.6756 124.707 49.4093 124.29C49.1429 123.873 63.2979 92.3599 65.1053 105.625C67.0079 119.477 67.5977 149.322 67.845 161.279C67.8831 167.514 64.3824 201.016 65.2956 232.719Z" fill="#0076FF"/>
<path d="M42.0083 158.172C41.076 165.164 28.0245 209.544 25.1707 233.231C23.2901 233.683 21.324 233.644 19.463 233.117C19.1586 219.852 18.3596 189.779 19.463 176.022C20.167 167.305 24.695 160.389 25.3419 156.883C26.6357 149.682 31.6584 86.7698 31.7155 82.7146C31.7155 82.7146 52.8148 78.6215 57.9517 81.7482C60.7294 90.9198 42.1224 156.485 42.0083 158.172Z" fill="#0076FF"/>
<path d="M62.9364 62.2302C62.9364 61.3586 65.7141 57.8529 65.0863 55.2947C64.5726 53.1534 61.1099 50.7279 61.3763 48.6624C61.8139 45.2704 61.947 37.4064 60.1206 35.6441C58.2941 33.8817 53.2334 32.3468 50.9503 31.7404L51.5211 48.5487L38.8691 31.7215C34.6074 32.4226 23.6487 36.9137 22.393 38.3349C18.3025 42.7501 31.316 72.444 30.7452 76.8782C30.0032 82.4304 26.4454 93.5348 25.0375 99.087C22.2218 109.415 18.9874 147.181 18.9874 147.181C19.9577 148.034 45.8324 149.474 54.6413 148.564C55.1549 148.564 54.6413 143.277 54.6413 141.363C54.9213 142.663 55.468 143.891 56.2473 144.971C57.0265 146.05 58.0213 146.958 59.1693 147.636C62.1754 149.228 71.0983 147.124 71.4598 146.954C71.1554 139.222 68.8343 110.722 67.2552 98.4996C66.7415 95.5245 62.7081 65.9822 62.9364 62.2302Z" fill="white"/>
<path d="M60.9957 148.337C53.4997 146.631 53.728 136.967 53.8041 133.822V133.367C53.9753 122.982 54.0895 104.942 54.1846 90.5218C54.1846 78.47 54.3178 68.0667 54.3939 65.2432C54.4483 64.3926 54.582 63.5488 54.7934 62.7229C55.3114 60.8749 55.4664 58.9446 55.25 57.038C54.8661 55.7411 54.3026 54.5038 53.5758 53.3618C52.7116 51.8697 51.955 50.3182 51.3117 48.7192C51.2931 48.6832 51.2823 48.6436 51.2803 48.6031C51.2782 48.5627 51.2849 48.5222 51.2998 48.4845C51.3147 48.4468 51.3376 48.4127 51.3668 48.3846C51.396 48.3564 51.431 48.3347 51.4693 48.3211C51.5076 48.3075 51.5484 48.3021 51.589 48.3055C51.6295 48.3089 51.6689 48.3208 51.7044 48.3406C51.7399 48.3604 51.7708 48.3874 51.795 48.4201C51.8191 48.4527 51.836 48.4901 51.8444 48.5297C52.4905 50.0904 53.2339 51.6094 54.0704 53.0776C54.8237 54.256 55.4125 55.531 55.8208 56.8675C56.0449 58.8681 55.89 60.8929 55.3642 62.8366C55.1581 63.6251 55.0244 64.4306 54.9646 65.2432C54.9646 68.0856 54.8314 78.5079 54.7553 90.5218C54.7553 104.98 54.5461 123.001 54.3748 133.367V133.822C54.3748 137.213 54.0704 146.177 61.1289 147.787C61.1664 147.794 61.2021 147.808 61.2335 147.829C61.265 147.85 61.2915 147.878 61.3114 147.91C61.3312 147.943 61.3438 147.979 61.3485 148.017C61.3531 148.054 61.3496 148.092 61.3382 148.128C61.3318 148.166 61.3174 148.201 61.2961 148.233C61.2748 148.264 61.247 148.29 61.2145 148.31C61.1821 148.33 61.1458 148.342 61.108 148.347C61.0703 148.352 61.032 148.348 60.9957 148.337Z" fill="#93B7E1"/>
<path d="M39.7062 29.1254C37.6668 30.3307 35.7208 31.6862 33.8844 33.1806L40.277 42.428L41.9512 39.434L42.1225 43.1101L51.5211 48.5487C51.5211 48.5487 40.1248 29.637 39.7062 29.1254Z" fill="white"/>
<path d="M48.4009 29.1254C48.5341 29.7886 51.5211 48.5487 51.5211 48.5487L53.3095 41.6131L51.5782 38.6191L54.0705 39.3013L51.7874 32.1005C51.7874 32.1005 48.2677 28.3864 48.4009 29.1254Z" fill="white"/>
<path d="M51.521 48.7761H51.3688L41.9702 43.3376C41.9309 43.3091 41.8985 43.2722 41.8754 43.2295C41.8523 43.1869 41.8392 43.1396 41.837 43.0912L41.7039 40.4383L40.5433 42.5417C40.518 42.5855 40.4822 42.6222 40.439 42.6487C40.3958 42.6752 40.3466 42.6905 40.296 42.6932C40.2483 42.6982 40.2002 42.6903 40.1566 42.6703C40.1131 42.6503 40.0758 42.6189 40.0487 42.5796L33.5039 33.1048C33.4826 33.0737 33.4678 33.0387 33.4601 33.0019C33.4524 32.9651 33.4521 32.9271 33.4592 32.8901C33.4735 32.8155 33.5169 32.7496 33.58 32.7069C33.643 32.6641 33.7206 32.6481 33.7955 32.6623C33.8704 32.6766 33.9366 32.7198 33.9795 32.7827L40.2579 41.8405L41.6849 39.2634C41.7178 39.2093 41.7661 39.166 41.8236 39.1391C41.8812 39.1121 41.9454 39.1026 42.0083 39.1118C42.0692 39.1271 42.1238 39.1609 42.1647 39.2084C42.2055 39.2559 42.2307 39.3148 42.2366 39.3771L42.3888 42.9017L51.6733 48.2644C51.7214 48.3196 51.748 48.3903 51.748 48.4634C51.748 48.5365 51.7214 48.6072 51.6733 48.6624C51.6351 48.7146 51.5821 48.7542 51.521 48.7761Z" fill="#93B7E1"/>
<path d="M51.5211 48.7761C51.4467 48.754 51.3836 48.7044 51.3447 48.6374C51.3058 48.5705 51.294 48.4913 51.3118 48.416L53.0812 41.5942L51.407 38.6949C51.3786 38.6459 51.3636 38.5904 51.3636 38.5338C51.3636 38.4773 51.3786 38.4217 51.407 38.3728C51.4525 38.3441 51.5053 38.329 51.5591 38.329C51.613 38.329 51.6658 38.3441 51.7114 38.3728L53.6139 38.9223L51.464 31.8542C51.4523 31.8181 51.4479 31.78 51.4512 31.7423C51.4544 31.7045 51.4653 31.6677 51.483 31.6342C51.5007 31.6007 51.525 31.571 51.5544 31.5469C51.5838 31.5228 51.6178 31.5049 51.6543 31.4941C51.7274 31.4754 51.8049 31.4845 51.8717 31.5195C51.9385 31.5545 51.9898 31.613 52.0158 31.6836L54.3179 39.2634C54.3449 39.3059 54.3593 39.3552 54.3593 39.4055C54.3593 39.4558 54.3449 39.5052 54.3179 39.5477C54.2735 39.5694 54.2246 39.5807 54.1752 39.5807C54.1257 39.5807 54.0769 39.5694 54.0325 39.5477L52.1299 39.036L53.4998 41.4236C53.5275 41.4969 53.5275 41.5778 53.4998 41.6511L51.7304 48.5866C51.715 48.6335 51.6877 48.6757 51.651 48.709C51.6143 48.7422 51.5695 48.7653 51.5211 48.7761Z" fill="#93B7E1"/>
<path d="M47.4306 52.6986L40.2199 53.703L39.7443 51.7322L46.9359 50.7279L47.4306 52.6986Z" fill="#93B7E1"/>
<path d="M60.9958 148.337C60.9105 148.335 60.8291 148.301 60.7675 148.242C60.2273 147.631 59.9138 146.853 59.8792 146.04C59.8445 145.226 60.0909 144.425 60.5773 143.77C58.5575 142.689 56.8625 141.093 55.6657 139.145C54.4689 137.197 53.8133 134.968 53.7661 132.685C53.7661 132.609 53.7962 132.537 53.8497 132.484C53.9032 132.43 53.9758 132.4 54.0515 132.4C54.1272 132.4 54.1998 132.43 54.2533 132.484C54.3068 132.537 54.3369 132.609 54.3369 132.685C54.3928 134.928 55.0549 137.116 56.2535 139.017C57.4521 140.917 59.1429 142.461 61.148 143.486C61.1855 143.507 61.2173 143.537 61.2405 143.574C61.2637 143.61 61.2776 143.651 61.2812 143.694C61.2995 143.729 61.3091 143.768 61.3091 143.808C61.3091 143.847 61.2995 143.886 61.2812 143.922C60.7904 144.473 60.5194 145.184 60.5194 145.921C60.5194 146.658 60.7904 147.369 61.2812 147.92C61.3335 147.973 61.3628 148.044 61.3628 148.119C61.3628 148.193 61.3335 148.265 61.2812 148.318C61.2383 148.343 61.1902 148.357 61.1407 148.361C61.0912 148.364 61.0416 148.356 60.9958 148.337Z" fill="#93B7E1"/>
<path d="M64.6677 58.4972C64.6312 58.4864 64.5973 58.4684 64.5678 58.4443C64.5384 58.4203 64.5141 58.3906 64.4964 58.3571C64.4787 58.3235 64.4679 58.2868 64.4646 58.249C64.4614 58.2112 64.4657 58.1732 64.4774 58.1371C64.7131 57.4344 64.8351 56.6988 64.8389 55.9579C64.4803 54.3156 63.7444 52.7784 62.689 51.4669C62.0649 50.6333 61.565 49.7142 61.205 48.7382C61.0064 47.6098 61.0064 46.4556 61.205 45.3272C61.205 44.7777 61.3573 44.2471 61.3763 43.8492C61.3763 43.7738 61.4063 43.7015 61.4599 43.6482C61.5134 43.5949 61.586 43.5649 61.6617 43.5649C61.7391 43.5698 61.8117 43.6038 61.8647 43.6602C61.9178 43.7165 61.9472 43.7909 61.947 43.8681C61.947 44.285 61.947 44.8346 61.7758 45.403C61.5598 46.4569 61.5212 47.5391 61.6617 48.6055C62.0183 49.5092 62.4915 50.3628 63.0696 51.1447C64.1886 52.5503 64.9579 54.1996 65.3146 55.9579C65.3044 56.7555 65.1762 57.5473 64.9341 58.3077C64.9145 58.3626 64.8785 58.4103 64.8309 58.4442C64.7832 58.4781 64.7262 58.4966 64.6677 58.4972Z" fill="#93B7E1"/>
<path d="M65.9615 80.2891C65.9615 80.4407 66.6464 80.4218 66.8747 80.8007C67.6333 82.6779 67.6806 84.7658 67.0079 86.6751C66.0258 87.2684 64.9184 87.6253 63.7735 87.7173C63.2979 87.7173 61.0148 86.6562 60.9768 85.3866C60.9768 84.7423 63.4121 82.961 64.3824 81.4829C63.4663 82.1966 62.4376 82.7537 61.3383 83.1316C61.1667 83.1316 61.0022 83.0637 60.8809 82.9428C60.7596 82.822 60.6914 82.6581 60.6914 82.4873C61.2569 81.5099 62.0455 80.6789 62.9935 80.0617C63.9828 79.3037 64.896 78.3752 65.4478 78.1668C65.7522 78.1668 66.1707 78.5268 66.2278 79.0574C66.2849 79.588 65.9234 80.1944 65.9615 80.2891Z" fill="#FBC4B6"/>
<path d="M67.2933 84.5148L67.1411 84.6664L66.9509 84.8559L66.7035 85.0643C66.4839 85.2403 66.2553 85.4047 66.0186 85.5571L65.2195 86.0497L64.3824 86.4856L63.6214 86.8267L63.298 86.9404H63.0506C62.9945 86.9548 62.9355 86.9548 62.8794 86.9404C62.8616 86.9488 62.8421 86.9532 62.8223 86.9532C62.8026 86.9532 62.7831 86.9488 62.7652 86.9404C62.7529 86.924 62.7462 86.904 62.7462 86.8835C62.7462 86.863 62.7529 86.8431 62.7652 86.8267H62.9555L63.4692 86.5803L63.8116 86.4098L64.1921 86.2013L65.0102 85.7465L65.8093 85.2918L66.4942 84.8559L66.7796 84.6854L66.9699 84.5527L67.1411 84.4011C67.1605 84.3872 67.1838 84.3798 67.2077 84.3798C67.2316 84.3798 67.2549 84.3872 67.2743 84.4011L67.2933 84.5148Z" fill="#F16A79"/>
<path d="M25.5131 87.0351C28.5382 85.1402 32.7428 81.464 33.7131 81.464C35.6157 81.464 39.4208 84.0222 39.0974 84.4201C38.4695 85.576 35.6728 83.4347 35.2923 83.7948C36.5099 84.5527 38.7739 87.3383 38.4886 88.2479C37.9558 89.9155 33.0092 88.4564 33.0092 88.4564C33.0092 88.4564 28.7855 92.8716 26.9781 92.4358C26.5337 92.3405 26.123 92.1286 25.7885 91.8221C25.454 91.5156 25.2078 91.1255 25.0755 90.6924C24.7899 89.4597 24.9446 88.1664 25.5131 87.0351Z" fill="#FBC4B6"/>
<path d="M32.5527 85.0075H32.8381C33.0915 84.9929 33.3456 84.9929 33.5991 85.0075C33.7762 84.9894 33.9547 84.9894 34.1318 85.0075C34.2326 84.9909 34.3354 84.9909 34.4362 85.0075H34.5694H34.7025L34.9689 85.1591L35.2162 85.3296C35.3875 85.4623 35.5587 85.576 35.7299 85.7276L36.2056 86.1445L36.5671 86.6751C36.8524 86.9783 37.0807 87.2625 37.271 87.5089L37.7276 88.1152L37.8798 88.3426V88.4753C37.8798 88.4753 37.8798 88.4753 37.7657 88.4753L37.5564 88.2668L37.0617 87.7173C36.8524 87.471 36.6051 87.2246 36.3387 86.9404L35.9012 86.5424L35.4446 86.1445L35.2162 85.955L34.9689 85.7844L34.4742 85.4434H34.3601H34.2459H34.0367H33.561C33.2566 85.4434 33.0093 85.4434 32.819 85.4434H32.5717C32.5465 85.4434 32.5223 85.4334 32.5044 85.4156C32.4866 85.3978 32.4766 85.3737 32.4766 85.3486L32.5527 85.0075Z" fill="#F16A79"/>
<path d="M33.0473 86.5046H33.2376L33.7132 86.6183C34.1722 86.7789 34.6124 86.9885 35.026 87.2436C35.4478 87.4863 35.8431 87.7721 36.2056 88.0963C36.3426 88.241 36.4638 88.3998 36.5671 88.5701V88.7027H36.3768L36.0153 88.4185C35.7109 88.1911 35.2733 87.9258 34.8357 87.6605C34.3981 87.3952 33.9415 87.1678 33.5991 86.9972L33.1805 86.8267H33.0093V86.713C33.0093 86.713 33.0093 86.4856 33.0473 86.5046Z" fill="#F16A79"/>
<path d="M22.3928 38.3538C13.9836 44.3608 0.570559 61.4533 0.0568698 67.8393C-1.04661 81.1039 19.0824 93.6296 23.3441 93.9707C23.6676 93.9707 27.4346 88.7027 25.4179 86.2961C21.9552 82.222 14.4021 71.7997 14.0026 69.2415C13.7172 67.5171 21.8221 58.3835 28.4239 53.5513C35.0258 48.7192 29.8889 33.01 22.3928 38.3538Z" fill="white"/>
<path d="M24.9044 56.7727C24.8371 56.7991 24.7623 56.7991 24.6951 56.7727C24.6428 56.7196 24.6135 56.6482 24.6135 56.5738C24.6135 56.4994 24.6428 56.4279 24.6951 56.3748C26.6612 54.5232 28.9332 53.0232 31.4111 51.9406C31.4821 51.9142 31.5604 51.915 31.6308 51.9431C31.7012 51.9711 31.7585 52.0243 31.7916 52.0922C31.8169 52.1652 31.8133 52.2451 31.7815 52.3155C31.7496 52.386 31.692 52.4416 31.6204 52.4712C29.2399 53.5056 27.0527 54.9344 25.1517 56.6969C25.1204 56.7295 25.0812 56.7535 25.0379 56.7668C24.9946 56.78 24.9487 56.7821 24.9044 56.7727Z" fill="#93B7E1"/>
</g>
<defs>
<clipPath id="clip0_301_2362">
<rect width="82" height="241" fill="white"/>
</clipPath>
</defs>
</svg>
