<svg xmlns="http://www.w3.org/2000/svg" viewBox="0 0 51.09 140.01"><defs><style>.cls-1{fill:#fff;}.cls-2{fill:#93b7e1;}</style></defs><g id="Layer_2" data-name="Layer 2"><g id="forearm"><circle id="forearm_circle" data-name="forearm circle" class="cls-1" cx="26.08" cy="128" r="11"/><path id="forearm-2" data-name="forearm" class="cls-1" d="M1.08,0h50c.08,19.75-.5,40.8-2,63-1.76,26.09-4.57,50.49-8,73h-29A457.86,457.86,0,0,1,1.08,0Z"/><path id="part_forearm" data-name="part forearm" class="cls-1" d="M41.08,136c1-3.73-6.47-11-14.5-11s-15.52,7.3-14.5,11,11.24,4,14,4C28.05,140,39.94,140.18,41.08,136Z"/></g><g id="forearm-cap"><path class="cls-1" d="M32.08,114a15,15,0,0,1,7.29,8,16.83,16.83,0,0,1,.71,10.61,31.7,31.7,0,0,0-27,.35,15.53,15.53,0,0,1-1-8,14.72,14.72,0,0,1,6.07-10A14.29,14.29,0,0,1,32.08,114Z"/><path class="cls-2" d="M12.24,132.62l.25-.3a31.72,31.72,0,0,1,28.39-.89,1.05,1.05,0,0,1,.39.27,1.27,1.27,0,0,1,.26.39,1.5,1.5,0,0,1,.08.47,1.24,1.24,0,0,1-1.75,1,29.78,29.78,0,0,0-26.15.85,1.11,1.11,0,0,1-.44.16,1,1,0,0,1-.46,0,1.41,1.41,0,0,1-.42-.22,1.13,1.13,0,0,1-.28-.37,1.15,1.15,0,0,1-.15-.7A1.18,1.18,0,0,1,12.24,132.62Z"/></g></g></svg>