<svg xmlns="http://www.w3.org/2000/svg" viewBox="0 0 145.19 207.76"><defs><style>.cls-1{fill:#284464;}</style></defs><g id="Layer_2" data-name="Layer 2"><g id="hair"><path class="cls-1" d="M143.44,8.18c-20.76,13.27,9,42.08,0,60.33s-37.89,16.37-49,35.07c-10.15,17.27,19.4,50.91-5,87.34a40.08,40.08,0,0,1-56.69,8.82C9.08,184.66-13.66,127.19,10,96S76.15,74.4,89.41,61.2c15.16-15.09-14.7-40.5,12-54.91a50.49,50.49,0,0,1,37.36-4.6C141.55,3.58,145.34,7,143.44,8.18Z"/><path class="cls-1" d="M133,10.52l-.45.45-.45.6-.46.91a4.44,4.44,0,0,0-.53,1.2,2.35,2.35,0,0,1-.38,1.51,20.56,20.56,0,0,0,0,4,91.33,91.33,0,0,0,.68,11.09c.53,4.22,1.22,9,1.44,14.4a44.18,44.18,0,0,1,0,8.45A21.47,21.47,0,0,1,130.18,62v.45l-.68,1-.83.9-.84.91a37.42,37.42,0,0,1-3.64,3.24,77.44,77.44,0,0,1-8.26,5.5c-5.83,3.4-12.05,6.41-18,9.88a81.69,81.69,0,0,0-8.79,5.66,31.39,31.39,0,0,0-3.87,3.32,19.3,19.3,0,0,0-3.11,3.92,28.23,28.23,0,0,0-3,9.73,66.43,66.43,0,0,0-.6,10.26c0,6.93.83,13.72,1.36,20.36a152.38,152.38,0,0,1,.61,19.23,67.76,67.76,0,0,1-1,9,38.65,38.65,0,0,1-2.42,8.07,27.46,27.46,0,0,1-4,6.78A25.64,25.64,0,0,1,67.89,185a33.59,33.59,0,0,1-10.31,5,46.59,46.59,0,0,1-7.13,1.51l-2.57.37a.58.58,0,0,1-.41-.15.59.59,0,0,1-.2-.37.55.55,0,0,1,0-.22.4.4,0,0,1,.09-.21.47.47,0,0,1,.17-.14.54.54,0,0,1,.22,0l2.5-.37a60.09,60.09,0,0,0,6.89-1.66,35.77,35.77,0,0,0,9.78-4.91,27.11,27.11,0,0,0,8.41-11.08,39.92,39.92,0,0,0,2.2-7.54,79.06,79.06,0,0,0,.91-8.68,182.55,182.55,0,0,0-.76-19c-.6-6.56-1.29-13.43-1.44-20.44a73.69,73.69,0,0,1,.53-10.71A46.67,46.67,0,0,1,78,100.94a24.59,24.59,0,0,1,2.13-5,25.4,25.4,0,0,1,3.48-4.45,37,37,0,0,1,4.17-3.54,81.3,81.3,0,0,1,8.94-5.74c6.14-3.46,12.36-6.48,18-9.8a70.87,70.87,0,0,0,8.11-5.28,34.5,34.5,0,0,0,3.49-3l.83-.83-.76-.45.68-.9v-.46a20.28,20.28,0,0,0,2.5-8.07,48.1,48.1,0,0,0,0-8.14,128.92,128.92,0,0,0-1.21-14.33,89.72,89.72,0,0,1-.53-11.24,31.4,31.4,0,0,1,.53-4.22,2.14,2.14,0,0,1,.46-1.66,5.69,5.69,0,0,1,.6-1.36,3.56,3.56,0,0,1,.61-1.05,2.54,2.54,0,0,1,.53-.68l.38-.46a.62.62,0,0,1,.83,0,.66.66,0,0,1,.32-.22.65.65,0,0,1,.39,0,.63.63,0,0,1,.33.2A.68.68,0,0,1,133,10.52Z"/><path class="cls-1" d="M128.74,5.69h-.68l-1.82.45a23,23,0,0,0-6.52,2.79A13.12,13.12,0,0,0,116,12.18a14,14,0,0,0-2.58,5.2A27,27,0,0,0,112.6,24a36.89,36.89,0,0,0,.53,7.54c.53,2.56.68,5.43,1,8.37a69.54,69.54,0,0,1,0,9.13,24.4,24.4,0,0,1-2.42,9.5,17.62,17.62,0,0,1-2.88,4.22l-1.9,1.89-2,1.58A74.1,74.1,0,0,1,86.23,75.9c-6.67,2.49-13.49,4.76-19.86,7.55a77.25,77.25,0,0,0-9.17,5.28,57.37,57.37,0,0,0-7.58,6.78,49.57,49.57,0,0,0-6.21,8.15,48.64,48.64,0,0,0-2.5,4.45c-.76,1.51-1.44,3-2.13,4.52a105.37,105.37,0,0,0-6.21,18.18,101.39,101.39,0,0,0-2.65,17v14.4a110.2,110.2,0,0,0,1.36,11.17c.61,3.09,1.21,5.43,1.67,7a18.25,18.25,0,0,0,.53,1.81v.68a.5.5,0,0,1,0,.21.47.47,0,0,1-.06.21.73.73,0,0,1-.14.16.54.54,0,0,1-.2.1s-.61,0-.76-.38v-.6a16.68,16.68,0,0,1-.6-1.81c-.53-1.66-1.22-4-1.9-7.09a107.77,107.77,0,0,1-1.59-11.32,105.42,105.42,0,0,1,0-15.08,108.26,108.26,0,0,1,2.58-17.35A103.69,103.69,0,0,1,37,111.35c.68-1.51,1.44-3.09,2.19-4.6a40.67,40.67,0,0,1,2.58-4.6,53.38,53.38,0,0,1,6.44-8.52A57.57,57.57,0,0,1,66,81.11c6.59-3.17,13.49-5.43,20.08-7.92a71,71,0,0,0,18.19-9.28l1.9-1.51a18.07,18.07,0,0,0,1.74-1.65A16.29,16.29,0,0,0,110.55,57a22,22,0,0,0,2.2-8.74,56.59,56.59,0,0,0,0-8.83,72,72,0,0,0-.91-8.29A40.34,40.34,0,0,1,112.45,16a15,15,0,0,1,7-9.12,23.49,23.49,0,0,1,6.89-2.79l1.9-.46H129a.6.6,0,0,1,.43.1.63.63,0,0,1,.25.36.88.88,0,0,1,.43.55.93.93,0,0,1-.09.69.91.91,0,0,1-1.25.34Z"/><path class="cls-1" d="M135.41,5.84H135l-.91.38-1.29.68a.77.77,0,0,1-1.06,0,.83.83,0,0,1,0-1.06l1.36-.75,1-.46h.53a.93.93,0,0,1,.29,0,.79.79,0,0,1,.54.25.61.61,0,0,1,.15.26.8.8,0,0,1,0,.57.9.9,0,0,1-.41.41Z"/><path class="cls-1" d="M127.76,12.18v.45l-.53,1.13c-.38.83-.69,1.73-.69,1.73a.84.84,0,0,1-.43.46.91.91,0,0,1-.63.07.78.78,0,0,1-.28-.16.63.63,0,0,1-.2-.26.8.8,0,0,1-.09-.31.85.85,0,0,1,0-.32,3.47,3.47,0,0,1,.68-1.89l.61-1.21v-.52a.81.81,0,0,1,.57-.23.83.83,0,0,1,.57.23.76.76,0,0,1,0,1.05Z"/><path class="cls-1" d="M125,26.43v2.26a.92.92,0,0,1-.91.91,1.11,1.11,0,0,1-.36,0,1.17,1.17,0,0,1-.31-.17,1.18,1.18,0,0,1-.22-.28,1,1,0,0,1-.1-.34V26.51a.89.89,0,0,1,.27-.64.91.91,0,0,1,.64-.27,1,1,0,0,1,.65.27.88.88,0,0,1,.26.64Z"/><path class="cls-1" d="M125.41,33.9V37a.88.88,0,0,1,0,.36.79.79,0,0,1-.46.54.73.73,0,0,1-.36.08.78.78,0,0,1-.37,0,.86.86,0,0,1-.58-.45.89.89,0,0,1-.11-.36V34.05a.92.92,0,0,1,0-.37.8.8,0,0,1,.19-.32,1.05,1.05,0,0,1,.3-.22,1,1,0,0,1,.37-.07.89.89,0,0,1,.36,0,.79.79,0,0,1,.31.17.88.88,0,0,1,.22.28A1,1,0,0,1,125.41,33.9Z"/><path class="cls-1" d="M126.39,44.53v3.92a1,1,0,0,1-.36.65,1,1,0,0,1-.7.26,1,1,0,0,1-.37-.08.9.9,0,0,1-.3-.21,1,1,0,0,1-.19-.32,1,1,0,0,1,0-.37V44.61a.9.9,0,0,1,0-.37.93.93,0,0,1,.49-.54.79.79,0,0,1,.37-.07.77.77,0,0,1,.37,0,.94.94,0,0,1,.32.19.84.84,0,0,1,.22.31.86.86,0,0,1,.08.36Z"/><path class="cls-1" d="M122.45,59.54l-.53.68-.68.9a1,1,0,0,1-.65.2,1.13,1.13,0,0,1-.64-.23,1,1,0,0,1-.36-.58,1,1,0,0,1,.06-.67l.68-.83.45-.6a1,1,0,0,1,1.37,0,.94.94,0,0,1,.36.51A1,1,0,0,1,122.45,59.54Z"/><path class="cls-1" d="M117.3,65.42l-1.14,1.06-1.14,1a1,1,0,0,1-.32.23,1,1,0,0,1-.79,0,1.23,1.23,0,0,1-.33-.23,1.07,1.07,0,0,1-.28-.72,1.09,1.09,0,0,1,.28-.72l1.14-1,1.14-1a1.05,1.05,0,0,1,.34-.2,1.32,1.32,0,0,1,.39-.06,1,1,0,0,1,.39.1,1.08,1.08,0,0,1,.32.24.9.9,0,0,1,.2.34,1.06,1.06,0,0,1,.06.39,1.12,1.12,0,0,1-.1.39,1,1,0,0,1-.24.31Z"/><path class="cls-1" d="M108.81,72.06l-3.26,2a1.07,1.07,0,0,1-1.44,0,1.18,1.18,0,0,1,0-1.5l3.26-2a1.06,1.06,0,0,1,.72-.32.89.89,0,0,1,.39.09.86.86,0,0,1,.33.23,1,1,0,0,1,.28.71A1.07,1.07,0,0,1,108.81,72.06Z"/><path class="cls-1" d="M95.55,79.68l-2,1a1.07,1.07,0,0,1-1.44,0,1.13,1.13,0,0,1,.46-1.51l2-1a1.13,1.13,0,0,1,.81,0,1.12,1.12,0,0,1,.63.5,1,1,0,0,1-.07.59A1.09,1.09,0,0,1,95.55,79.68Z"/><path class="cls-1" d="M88.5,83.22l-2.73,1.43a.93.93,0,0,1-.4.12,1,1,0,0,1-.41,0,1,1,0,0,1-.37-.2,1.14,1.14,0,0,1-.26-.32,1.33,1.33,0,0,1-.12-.4,1.13,1.13,0,0,1,.05-.41,1,1,0,0,1,.2-.36.93.93,0,0,1,.33-.26l2.65-1.44a1.14,1.14,0,0,1,.85-.07,1.09,1.09,0,0,1,.66.53.93.93,0,0,1,.12.4,1.17,1.17,0,0,1,0,.41,1,1,0,0,1-.2.36A1,1,0,0,1,88.5,83.22Z"/><path class="cls-1" d="M79.56,88.35l-3.26,2a1.13,1.13,0,0,1-.8.32,1.1,1.1,0,0,1-.79-.32,1.19,1.19,0,0,1,0-1.58l3.25-2a1.14,1.14,0,0,1,1.52.38,1,1,0,0,1,.23.59A1.12,1.12,0,0,1,79.56,88.35Z"/><path class="cls-1" d="M67.43,97.1l-1.59,1.66a1.15,1.15,0,0,1-1.59,0,1.29,1.29,0,0,1-.31-.83,1.26,1.26,0,0,1,.31-.83l1.67-1.59a1.08,1.08,0,0,1,.36-.31,1.23,1.23,0,0,1,.46-.14,1.27,1.27,0,0,1,.48.07,1.36,1.36,0,0,1,.41.26,1.25,1.25,0,0,1,.26.41,1.09,1.09,0,0,1-.07.93,1.12,1.12,0,0,1-.31.37Z"/><path class="cls-1" d="M62.66,102.68v.45l-.53.83-.69,1.28a1.18,1.18,0,0,1-.65.55,1.21,1.21,0,0,1-.86,0,1.14,1.14,0,0,1-.54-.66,1.19,1.19,0,0,1,.08-.85,12.54,12.54,0,0,1,.69-1.43l.6-.91v-.45a1.13,1.13,0,0,1,.8-.32,1.1,1.1,0,0,1,.79.32,1.13,1.13,0,0,1,0,1.51Z"/><path class="cls-1" d="M58.87,112.18V114l-.68,1.59a1.14,1.14,0,0,1-1.29.9,1.17,1.17,0,0,1-.72-.5,1.19,1.19,0,0,1-.19-.86l.45-1.88v-1.89a1.21,1.21,0,0,1,.53-.65,1.16,1.16,0,0,1,.84-.1,1.08,1.08,0,0,1,.69.51,1.1,1.1,0,0,1,.14.85Z"/><path class="cls-1" d="M56.82,126.89v2.26a1.14,1.14,0,0,1-.33.8,1.16,1.16,0,0,1-.81.33,1.13,1.13,0,0,1-1.06-1.13v-2.26a1.06,1.06,0,0,1,1.06-1.06,1,1,0,0,1,.43.06,1,1,0,0,1,.37.22.9.9,0,0,1,.25.36A1,1,0,0,1,56.82,126.89Z"/><path class="cls-1" d="M57.05,134.35v3a1.15,1.15,0,0,1-.25.8,1.2,1.2,0,0,1-.74.41,1,1,0,0,1-.42,0,1,1,0,0,1-.37-.2A1,1,0,0,1,55,138a.84.84,0,0,1-.08-.41v-3a1.07,1.07,0,0,1,.25-.8,1.15,1.15,0,0,1,.73-.41,1,1,0,0,1,.43,0,1.11,1.11,0,0,1,.37.2,1,1,0,0,1,.25.34A1,1,0,0,1,57.05,134.35Z"/><path class="cls-1" d="M58.18,144.91l.38,3.77a.81.81,0,0,1,0,.41.87.87,0,0,1-.18.36,1.1,1.1,0,0,1-.31.26,1.14,1.14,0,0,1-.4.11,1.07,1.07,0,0,1-1.13-.91l-.46-3.77a1.19,1.19,0,0,1,0-.42,1.27,1.27,0,0,1,.18-.37,1,1,0,0,1,.32-.28,1.07,1.07,0,0,1,.39-.14,1.15,1.15,0,0,1,.8.25A1.09,1.09,0,0,1,58.18,144.91Z"/><path class="cls-1" d="M58.87,160.3v2.26a1,1,0,0,1-1,1,1,1,0,0,1-1-1V160.3a1,1,0,0,1,.13-.37.77.77,0,0,1,.26-.28.92.92,0,0,1,.74-.18,1.06,1.06,0,0,1,.68.38,1.08,1.08,0,0,1,.23.75Z"/><path class="cls-1" d="M57.28,167.84v.45l-.38,1.06a14.41,14.41,0,0,1-.53,1.43,1,1,0,0,1-.22.32,1,1,0,0,1-.7.29,1.23,1.23,0,0,1-.37-.08,1.07,1.07,0,0,1-.51-.54,1,1,0,0,1,0-.74,2.42,2.42,0,0,1,.53-1.36l.38-1a1.14,1.14,0,0,1,.53-.53,1.17,1.17,0,0,1,.76-.07.94.94,0,0,1,.54.48,1,1,0,0,1,.06.72Z"/><path class="cls-1" d="M52.5,177.57l-.38.53-.76,1.05c-.53.83-1.13,1.59-1.13,1.59a1,1,0,0,1-.3.19.84.84,0,0,1-.35.07.87.87,0,0,1-.35-.07.81.81,0,0,1-.29-.19.77.77,0,0,1-.19-.28.72.72,0,0,1-.07-.33.71.71,0,0,1,.07-.32.77.77,0,0,1,.19-.28L50.08,178l.68-1.05.38-.53a.83.83,0,0,1,.27-.19.78.78,0,0,1,.33-.07.72.72,0,0,1,.33.07.77.77,0,0,1,.28.19.88.88,0,0,1,.23.6.93.93,0,0,1-.23.61Z"/><path class="cls-1" d="M42.35,189.18l-1.75,1.51a.76.76,0,0,1-.55.21.81.81,0,0,1-.55-.25.74.74,0,0,1-.2-.55.75.75,0,0,1,.24-.54L41.21,188a.7.7,0,0,1,.26-.19.64.64,0,0,1,.31-.07.67.67,0,0,1,.31.07.81.81,0,0,1,.47.72.78.78,0,0,1-.21.52Z"/><path class="cls-1" d="M135.79,12.18v.37l-.38.91c0,.47,0,.95,0,1.43a.81.81,0,0,1-.34.47.82.82,0,0,1-.57.13.8.8,0,0,1-.5-.36.9.9,0,0,1-.11-.62,9.64,9.64,0,0,1,.46-1.5,10.31,10.31,0,0,0,.38-1.06V11.5a.74.74,0,0,1,.49-.18.72.72,0,0,1,.49.18.61.61,0,0,1,.26.15.74.74,0,0,1,.17.25.7.7,0,0,1,0,.29.75.75,0,0,1-.09.29Z"/><path class="cls-1" d="M134.5,22.13v3.7a.83.83,0,0,1-.24.58.83.83,0,0,1-.59.25.82.82,0,0,1-.59-.25.79.79,0,0,1-.25-.58V22a.69.69,0,0,1,0-.32.73.73,0,0,1,.15-.29.86.86,0,0,1,.26-.2.81.81,0,0,1,.31-.1,1,1,0,0,1,.6.21,1,1,0,0,1,.31.55Z"/><path class="cls-1" d="M137.46,36.84l.6,2.26a.77.77,0,0,1,0,.37,1,1,0,0,1-.12.34.93.93,0,0,1-.25.27,1,1,0,0,1-.34.15,1.11,1.11,0,0,1-.69-.14,1.09,1.09,0,0,1-.45-.54l-.53-2.26a.91.91,0,0,1,.16-.62.84.84,0,0,1,.52-.36.92.92,0,0,1,.63.06A1,1,0,0,1,137.46,36.84Z"/><path class="cls-1" d="M139.35,44.23l.68,3a1,1,0,0,1-.15.71,1,1,0,0,1-.6.42,1,1,0,0,1-.73-.15,1,1,0,0,1-.41-.61l-.68-2.94a.92.92,0,0,1,.15-.72,1,1,0,0,1,.6-.41.82.82,0,0,1,.38-.06.77.77,0,0,1,.36.12.75.75,0,0,1,.27.26A.78.78,0,0,1,139.35,44.23Z"/><path class="cls-1" d="M141,55.24v3.92a1.13,1.13,0,0,1-.1.37.89.89,0,0,1-.24.3,1,1,0,0,1-.34.19,1,1,0,0,1-.38,0,.94.94,0,0,1-.37-.11.87.87,0,0,1-.31-.23,1,1,0,0,1-.19-.34,1,1,0,0,1,0-.38V55.24a1,1,0,0,1,1-1,1,1,0,0,1,.39.05,1.08,1.08,0,0,1,.34.21,1,1,0,0,1,.21.33A1,1,0,0,1,141,55.24Z"/><path class="cls-1" d="M136.32,69.64l-.61.53a5.24,5.24,0,0,1-1,.76,1,1,0,0,1-.31.22.83.83,0,0,1-.37.08.84.84,0,0,1-.38-.08,1,1,0,0,1-.31-.22,1.3,1.3,0,0,1-.23-.33,1,1,0,0,1,0-.78,1.5,1.5,0,0,1,.23-.33l.84-.67.6-.53a1.09,1.09,0,0,1,.72-.28,1,1,0,0,1,.72.28,1,1,0,0,1,.32.66A1,1,0,0,1,136.32,69.64Z"/><path class="cls-1" d="M130,74.17l-2.65,1.51a1.14,1.14,0,0,1-.79.08.93.93,0,0,1-.7-1.26,1.14,1.14,0,0,1,.51-.63L129,72.36a1,1,0,0,1,.38-.11.93.93,0,0,1,.74.24.82.82,0,0,1,.24.32,1,1,0,0,1,.16.37.9.9,0,0,1,0,.4.92.92,0,0,1-.19.35A.78.78,0,0,1,130,74.17Z"/><path class="cls-1" d="M120.4,79.07,117,80.66a1.08,1.08,0,0,1-.4.11.94.94,0,0,1-.41,0,1.11,1.11,0,0,1-.37-.2,1.23,1.23,0,0,1-.26-.33,1.13,1.13,0,0,1,.53-1.43l3.42-1.58a1.11,1.11,0,0,1,.82,0,1.21,1.21,0,0,1,.62.54,1.08,1.08,0,0,1,0,.79A1,1,0,0,1,120.4,79.07Z"/><path class="cls-1" d="M106.69,85.41l-2,1a.93.93,0,0,1-.4.12,1.12,1.12,0,0,1-.41,0,1.2,1.2,0,0,1-.37-.2,1.06,1.06,0,0,1-.26-.33,1.33,1.33,0,0,1-.12-.4,1.13,1.13,0,0,1,0-.41,1,1,0,0,1,.2-.36.93.93,0,0,1,.33-.26l2-1.06a1.14,1.14,0,0,1,.4-.11,1,1,0,0,1,.42,0,1.07,1.07,0,0,1,.36.2,1,1,0,0,1,.26.32,1,1,0,0,1,.12.4,1,1,0,0,1-.05.41,1,1,0,0,1-.2.37A1.35,1.35,0,0,1,106.69,85.41Z"/><path class="cls-1" d="M100.09,89.18l-2.57,1.58a1.08,1.08,0,0,1-.82.16,1.06,1.06,0,0,1-.7-.46,1.07,1.07,0,0,1-.16-.82A1.1,1.1,0,0,1,96.3,89l2.58-1.66a1.14,1.14,0,0,1,.83-.11,1.16,1.16,0,0,1,.69.49,1.13,1.13,0,0,1,.17.39,1,1,0,0,1,0,.43,1.11,1.11,0,0,1-.16.39A1.14,1.14,0,0,1,100.09,89.18Z"/><path class="cls-1" d="M91.76,95.36l-.46.38-.83.9-1.06,1.44a1.14,1.14,0,0,1-1.59.3,1.15,1.15,0,0,1-.31-1.58s.61-.83,1.29-1.59l.91-1,.46-.45a1.15,1.15,0,0,1,.76-.22,1.09,1.09,0,0,1,.72.32,1.12,1.12,0,0,1,.33.72A1.14,1.14,0,0,1,91.76,95.36Z"/><path class="cls-1" d="M86.76,108v2.27a1.23,1.23,0,0,1-.36.78,1.27,1.27,0,0,1-.78.35,1.14,1.14,0,0,1-.8-.33,1.12,1.12,0,0,1-.34-.8V108a1.12,1.12,0,0,1,.34-.8,1.13,1.13,0,0,1,1.6,0A1.12,1.12,0,0,1,86.76,108Z"/><path class="cls-1" d="M87,115.58v3a1.1,1.1,0,0,1-.4.61,1.17,1.17,0,0,1-1.39,0,1.1,1.1,0,0,1-.4-.61v-3a1.17,1.17,0,0,1,.27-.86,1.27,1.27,0,0,1,.79-.43,1.24,1.24,0,0,1,.8.3,1.22,1.22,0,0,1,.41.76Z"/><path class="cls-1" d="M88,126.21l.53,3.77a1.07,1.07,0,0,1-.25.8,1.15,1.15,0,0,1-.73.41,1.19,1.19,0,0,1-.42,0,1.33,1.33,0,0,1-.38-.18,1.18,1.18,0,0,1-.28-.31,1.11,1.11,0,0,1-.13-.4l-.46-3.77a1.06,1.06,0,0,1,.31-.75,1.06,1.06,0,0,1,1.5,0,1.06,1.06,0,0,1,.31.75Z"/><path class="cls-1" d="M89.86,141.37v2.26a1.08,1.08,0,0,1-.27.75,1.14,1.14,0,0,1-.71.38,1,1,0,0,1-.43,0,1,1,0,0,1-.37-.21.9.9,0,0,1-.25-.33,1,1,0,0,1-.09-.42v-2.26a1.13,1.13,0,0,1,.05-.41,1.17,1.17,0,0,1,.21-.36.9.9,0,0,1,.33-.25.92.92,0,0,1,.4-.11,1,1,0,0,1,.41.05,1.07,1.07,0,0,1,.36.2,1,1,0,0,1,.25.33A.92.92,0,0,1,89.86,141.37Z"/><path class="cls-1" d="M90.39,149v3a.9.9,0,0,1,0,.4.84.84,0,0,1-.21.35,1.14,1.14,0,0,1-.33.23,1,1,0,0,1-.39.08,1.17,1.17,0,0,1-.76-.28,1.14,1.14,0,0,1-.38-.7v-3a1.15,1.15,0,0,1,1.06-1.13A1.06,1.06,0,0,1,90.39,149Z"/><path class="cls-1" d="M90.24,159.7v3.84a1,1,0,0,1-.13.37.87.87,0,0,1-.26.28.92.92,0,0,1-.74.18,1,1,0,0,1-.4-.11,1.07,1.07,0,0,1-.31-.25.85.85,0,0,1-.18-.37.78.78,0,0,1,0-.4v-3.7a.92.92,0,0,1,.11-.39.9.9,0,0,1,.25-.33,1.31,1.31,0,0,1,.36-.21,1.13,1.13,0,0,1,.41-.05,1.07,1.07,0,0,1,.91,1.14Z"/><path class="cls-1" d="M87.21,174.78v1.13L86.83,177a1,1,0,0,1-.54.55,1,1,0,0,1-.78,0A1,1,0,0,1,85,177a1,1,0,0,1,0-.78l.45-1.05V174.1a.9.9,0,0,1,.2-.34,1.08,1.08,0,0,1,.32-.24,1.24,1.24,0,0,1,.38-.09,1,1,0,0,1,.94.59,1.11,1.11,0,0,1,.06.76Z"/><path class="cls-1" d="M84,181.87v.38l-.53.9-.83,1.36a1,1,0,0,1-1.37,0,1,1,0,0,1,0-1.36l.84-1.21.45-.9v-.38a1.08,1.08,0,0,1,.56-.29,1,1,0,0,1,.62.11,1.06,1.06,0,0,1,.43.46,1,1,0,0,1,.06.63Z"/><path class="cls-1" d="M77.36,190.47l-.46.45-1,.9L74.48,193a1,1,0,0,1-.31.23,1,1,0,0,1-.37.08.91.91,0,0,1-.69-.31.89.89,0,0,1-.22-.29.85.85,0,0,1-.08-.35.94.94,0,0,1,.08-.36.85.85,0,0,1,.22-.28l1.37-1.21,1-.9v-.38a1.05,1.05,0,0,1,.65-.16,1,1,0,0,1,.59.29A.94.94,0,0,1,77,190a1,1,0,0,1-.15.64Z"/><path class="cls-1" d="M64.25,198.54l-2.2.75a.82.82,0,0,1-.35,0,1,1,0,0,1-.34-.11.85.85,0,0,1-.28-.22.94.94,0,0,1-.17-.31,1.1,1.1,0,0,1,0-.36A.79.79,0,0,1,61,198a.89.89,0,0,1,.23-.28.92.92,0,0,1,.31-.16l2.12-.76a1,1,0,0,1,.7.07.92.92,0,0,1,.44.53.84.84,0,0,1,.07.35.81.81,0,0,1-.08.34.83.83,0,0,1-.21.28A.94.94,0,0,1,64.25,198.54Z"/><path class="cls-1" d="M56.67,200.65h-3a.78.78,0,0,1-.34,0,.85.85,0,0,1-.3-.15.66.66,0,0,1-.2-.27.72.72,0,0,1-.07-.33.85.85,0,0,1,0-.32.92.92,0,0,1,.16-.29.82.82,0,0,1,.25-.2.9.9,0,0,1,.32-.09h2.95a.92.92,0,0,1,1,1.08,1.07,1.07,0,0,1-.13.31,1,1,0,0,1-.24.23.72.72,0,0,1-.31.11Z"/><path class="cls-1" d="M45.83,200.65H43.94L42,200.2a.86.86,0,0,1-.45-.39.84.84,0,0,1-.08-.6.86.86,0,0,1,.39-.45.83.83,0,0,1,.6-.07l1.82.37h1.82a1,1,0,0,1,.42.3.85.85,0,0,1,0,1,.89.89,0,0,1-.42.3Z"/><path class="cls-1" d="M128.74,2.9h-3a.87.87,0,0,1-.57-.13.81.81,0,0,1-.34-.47.58.58,0,0,1,0-.32.76.76,0,0,1,.13-.29.79.79,0,0,1,.24-.21.85.85,0,0,1,.31-.09h3a.77.77,0,0,1,.3,0,.73.73,0,0,1,.26.14.71.71,0,0,1,.19.23.83.83,0,0,1,.08.28.67.67,0,0,1-.14.53.75.75,0,0,1-.46.3Z"/><path class="cls-1" d="M118.81,5.39h-.53l-1.21.45-1.67.75a.71.71,0,0,1-.32.1,1.24,1.24,0,0,1-.33,0,1,1,0,0,1-.28-.17.63.63,0,0,1-.2-.26.9.9,0,0,1,0-1.13l1.81-.76,1.22-.45h.6a.86.86,0,0,1,.63,0,.84.84,0,0,1,.43.44,1,1,0,0,1,.05.33.91.91,0,0,1-.09.31.86.86,0,0,1-.2.26.9.9,0,0,1-.29.16Z"/><path class="cls-1" d="M106.08,13.16l-.53.52a5.47,5.47,0,0,1-.68.83,1,1,0,0,1-.3.2.84.84,0,0,1-.35.07.8.8,0,0,1-.34-.07.88.88,0,0,1-.3-.2,1,1,0,0,1-.2-.29,1,1,0,0,1-.07-.35,1,1,0,0,1,.07-.34,1.21,1.21,0,0,1,.2-.3l.76-.9.53-.61a1,1,0,0,1,.27-.19.84.84,0,0,1,.67,0,1,1,0,0,1,.27.19,1,1,0,0,1,.2.3.8.8,0,0,1,.07.34.88.88,0,0,1-.27.64Z"/><path class="cls-1" d="M102.29,19.26v2.8a.87.87,0,0,1-.13.35,1,1,0,0,1-.26.28.93.93,0,0,1-.36.14,1,1,0,0,1-.38,0,1,1,0,0,1-.34-.12.93.93,0,0,1-.27-.25,1,1,0,0,1-.15-.33,1.09,1.09,0,0,1,0-.36V20.17a9.37,9.37,0,0,0,0-1.06v-.45a.8.8,0,0,1,.17-.33.89.89,0,0,1,.3-.24.78.78,0,0,1,.37-.09.8.8,0,0,1,.37.06.92.92,0,0,1,.31.16.89.89,0,0,1,.23.28.79.79,0,0,1,.1.34,1,1,0,0,1,0,.35Z"/><path class="cls-1" d="M101.69,29.37v3.77a1,1,0,0,1-.26.7,1.11,1.11,0,0,1-.65.36,1,1,0,0,1-.38,0,.89.89,0,0,1-.34-.16,1,1,0,0,1-.24-.29.78.78,0,0,1-.1-.36l-.38-3.77a1,1,0,0,1,0-.38,1,1,0,0,1,.19-.34,1,1,0,0,1,.3-.24,1.26,1.26,0,0,1,.38-.1.93.93,0,0,1,.37,0,.82.82,0,0,1,.34.16,1,1,0,0,1,.24.29.89.89,0,0,1,.11.36Z"/><path class="cls-1" d="M103.66,44.45v2.27a.93.93,0,0,1-.06.4,1,1,0,0,1-.2.34,1,1,0,0,1-.33.23.92.92,0,0,1-.4.08,1,1,0,0,1-.38,0,1,1,0,0,1-.34-.19,1,1,0,0,1-.24-.3,1,1,0,0,1-.1-.37V44.61a1.22,1.22,0,0,1,.07-.38,1,1,0,0,1,.22-.32,1,1,0,0,1,.7-.28,1,1,0,0,1,.37.07,1,1,0,0,1,.32.21,1,1,0,0,1,.22.32,1.22,1.22,0,0,1,.07.38Z"/><path class="cls-1" d="M103.66,52.15v3.09a1.15,1.15,0,0,1-.38.56,1.08,1.08,0,0,1-.65.22,1.05,1.05,0,0,1-.64-.22,1,1,0,0,1-.38-.56V52.3a1.13,1.13,0,0,1,1.06-1,1,1,0,0,1,.63.25A1,1,0,0,1,103.66,52.15Z"/><path class="cls-1" d="M100.85,62.78a9,9,0,0,1-.91,1.13l-1,1h-.38a1,1,0,0,1-.37.32,1,1,0,0,1-.46.12,1.11,1.11,0,0,1-.48-.09,1.2,1.2,0,0,1-.38-.3,1.15,1.15,0,0,1-.21-.43,1.11,1.11,0,0,1,0-.48,1.08,1.08,0,0,1,.21-.43,1.11,1.11,0,0,1,.39-.29l.45-.38a3.89,3.89,0,0,0,.84-.83,4.12,4.12,0,0,0,.76-.9.9.9,0,0,1,.32-.23.92.92,0,0,1,.4-.08.91.91,0,0,1,.39.08,1,1,0,0,1,.33.23,1,1,0,0,1,.36.31.86.86,0,0,1,.14.46.82.82,0,0,1-.1.46A.86.86,0,0,1,100.85,62.78Z"/><path class="cls-1" d="M88,71.83l-2,.91a1.17,1.17,0,0,1-.41.1,1.16,1.16,0,0,1-.42-.07,1,1,0,0,1-.36-.22,1,1,0,0,1-.25-.34,1,1,0,0,1-.1-.41,1,1,0,0,1,.07-.42,1,1,0,0,1,.22-.36,1,1,0,0,1,.34-.24l2.12-.91a1.13,1.13,0,0,1,.79,0,1,1,0,0,1,.57.54,1.11,1.11,0,0,1,0,.82A1.13,1.13,0,0,1,88,71.83Z"/><path class="cls-1" d="M80.92,74.62,78,75.6a1.17,1.17,0,0,1-.8-.1,1,1,0,0,1-.49-1.39,1.15,1.15,0,0,1,.61-.54l3-1a1,1,0,0,1,.78.08,1.05,1.05,0,0,1,.51.59,1.07,1.07,0,0,1,.09.43.87.87,0,0,1-.11.41.89.89,0,0,1-.27.34A.93.93,0,0,1,80.92,74.62Z"/><path class="cls-1" d="M70.61,77.87l-3.71,1a1.16,1.16,0,0,1-1.14-1,1.24,1.24,0,0,1,0-.43,1.09,1.09,0,0,1,.15-.39,1.11,1.11,0,0,1,.3-.31,1.16,1.16,0,0,1,.4-.16l3.71-1a1.15,1.15,0,0,1,.79.14,1.18,1.18,0,0,1,.5.62,1,1,0,0,1,.1.52,1.07,1.07,0,0,1-.17.51,1,1,0,0,1-.4.35A1,1,0,0,1,70.61,77.87Z"/><path class="cls-1" d="M55.84,81.49l-2.2.6a1.4,1.4,0,0,1-.49.15,1.27,1.27,0,0,1-.51-.08,1.12,1.12,0,0,1-.41-.3,1.07,1.07,0,0,1-.25-.44,1.1,1.1,0,0,1,0-.51,1.16,1.16,0,0,1,.2-.47,1.13,1.13,0,0,1,.39-.33A1.05,1.05,0,0,1,53,80l2.2-.61a1.31,1.31,0,0,1,.87.1,1.23,1.23,0,0,1,.57.66,1.11,1.11,0,0,1-.14.85A1.16,1.16,0,0,1,55.84,81.49Z"/><path class="cls-1" d="M48.56,83.6l-2.88,1a1.17,1.17,0,0,1-.88-.08,1.15,1.15,0,0,1,.2-2.11l2.88-.9a1.12,1.12,0,0,1,.44-.09,1,1,0,0,1,.43.1,1.22,1.22,0,0,1,.36.27,1.23,1.23,0,0,1,.21.39,1.38,1.38,0,0,1,0,.45,1.08,1.08,0,0,1-.13.43,1.17,1.17,0,0,1-.28.35A1.39,1.39,0,0,1,48.56,83.6Z"/><path class="cls-1" d="M38.71,87.29h-.53L37,87.9l-1.67.83a1.17,1.17,0,0,1-.41.14,1.14,1.14,0,0,1-.45,0,1.11,1.11,0,0,1-.38-.22.85.85,0,0,1-.27-.35,1.07,1.07,0,0,1-.08-.84,1.14,1.14,0,0,1,.53-.67l1.75-.9,1.21-.6h.53a1.14,1.14,0,0,1,.87-.05,1.12,1.12,0,0,1,.64.57,1.22,1.22,0,0,1,0,.86,1.19,1.19,0,0,1-.56.65Z"/><path class="cls-1" d="M26.58,95.59l-.45.6-.76.83a1,1,0,0,1-.34.26,1,1,0,0,1-.42.1,1,1,0,0,1-.42-.1,1.06,1.06,0,0,1-.34-.26,1.07,1.07,0,0,1-.23-1.16,1,1,0,0,1,.23-.35l.76-.9.53-.6a1.15,1.15,0,0,1,.8-.33,1.13,1.13,0,0,1,1.12,1.12,1.13,1.13,0,0,1-.33.79Z"/><path class="cls-1" d="M22.41,101.55v.37c-.16.3-.31.6-.45.91l-.61,1.36a1,1,0,0,1-1.36.6.92.92,0,0,1-.39-.21,1.17,1.17,0,0,1-.28-.35,1.13,1.13,0,0,1-.1-.44,1,1,0,0,1,.09-.43l.6-1.44.53-1v-.45a1.14,1.14,0,0,1,.67-.53A1.1,1.1,0,0,1,22,100a1.13,1.13,0,0,1,.53,1.43Z"/><path class="cls-1" d="M19,111.28,18.17,115a.84.84,0,0,1-.14.41,1,1,0,0,1-.3.31,1.07,1.07,0,0,1-.41.15.93.93,0,0,1-.44,0,1.11,1.11,0,0,1-.66-.48,1.08,1.08,0,0,1-.17-.8l.83-3.7a1,1,0,0,1,.47-.69,1.09,1.09,0,0,1,.39-.15,1.24,1.24,0,0,1,.43,0,1.11,1.11,0,0,1,.41.14,1,1,0,0,1,.32.31,1,1,0,0,1,.15.4A1.09,1.09,0,0,1,19,111.28Z"/><path class="cls-1" d="M16.58,126.06v2.26a1.08,1.08,0,0,1-.11.4,1.15,1.15,0,0,1-.25.33,1,1,0,0,1-.37.2,1.13,1.13,0,0,1-.41.05,1.15,1.15,0,0,1-.41-.08,1,1,0,0,1-.34-.26.85.85,0,0,1-.21-.37,1,1,0,0,1,0-.42v-2.26a1.06,1.06,0,1,1,2.12,0Z"/><path class="cls-1" d="M16.12,133.6v3a1,1,0,0,1-.31.74,1.06,1.06,0,0,1-.75.31,1.1,1.1,0,0,1-.73-.33,1.15,1.15,0,0,1-.33-.72v-3.1a1.09,1.09,0,0,1,.08-.39,1.27,1.27,0,0,1,.24-.33.9.9,0,0,1,.34-.2,1.07,1.07,0,0,1,1.13.26,1.08,1.08,0,0,1,.21.34,1.1,1.1,0,0,1,.05.4Z"/><path class="cls-1" d="M16.28,144.08v3.85a1.06,1.06,0,0,1-.26.7,1.11,1.11,0,0,1-.65.36,1,1,0,0,1-.42-.06,1.07,1.07,0,0,1-.36-.2,1,1,0,0,1-.25-.33,1.09,1.09,0,0,1-.11-.39v-3.78a.94.94,0,0,1,.29-.69,1,1,0,0,1,1.39,0,.94.94,0,0,1,.29.69Z"/><path class="cls-1" d="M17.94,159.09l.38,2.26a.87.87,0,0,1,0,.36.81.81,0,0,1-.14.33.93.93,0,0,1-.27.25,1,1,0,0,1-.34.12,1,1,0,0,1-1.13-.75l-.38-2.27a.87.87,0,0,1,0-.36.77.77,0,0,1,.14-.32.81.81,0,0,1,.27-.25,1,1,0,0,1,.34-.12.81.81,0,0,1,.38,0,.93.93,0,0,1,.36.14,1,1,0,0,1,.26.27A.78.78,0,0,1,17.94,159.09Z"/><path class="cls-1" d="M19.38,166.48l.69,2.94a.93.93,0,0,1,0,.37.91.91,0,0,1-.12.35,1.06,1.06,0,0,1-.25.27,1,1,0,0,1-.34.15.9.9,0,0,1-.66-.13,1,1,0,0,1-.4-.55l-.76-2.94a1,1,0,0,1,0-.38.89.89,0,0,1,.11-.36.87.87,0,0,1,.27-.27.92.92,0,0,1,.36-.13.88.88,0,0,1,.36,0,.89.89,0,0,1,.62.37A.71.71,0,0,1,19.38,166.48Z"/><path class="cls-1" d="M22.11,176.66l1.29,3.55a.69.69,0,0,1,0,.32.89.89,0,0,1-.08.32.72.72,0,0,1-.21.25.81.81,0,0,1-.28.17.83.83,0,0,1-.62,0,.79.79,0,0,1-.44-.44l-1.29-3.62a.68.68,0,0,1-.08-.31.87.87,0,0,1,.06-.32.83.83,0,0,1,.19-.26.66.66,0,0,1,.28-.16.81.81,0,0,1,.34-.08.63.63,0,0,1,.33.06.79.79,0,0,1,.29.18.88.88,0,0,1,.18.29Z"/><path class="cls-1" d="M28.55,189.94l.53.45h.53a.75.75,0,0,1,.45.35.73.73,0,0,1,.08.56.78.78,0,0,1-.39.45.81.81,0,0,1-.59.07H28.7a1.86,1.86,0,0,1-.75-.45,2.33,2.33,0,0,1-.08-.38.84.84,0,0,1-.1-.52A.79.79,0,0,1,28,190a.85.85,0,0,1,.47-.24.87.87,0,0,1,.53.1Z"/></g></g></svg>