<svg xmlns="http://www.w3.org/2000/svg" viewBox="0 0 44.03 81.95"><defs><style>.cls-1{fill:#fbc4b6;}.cls-2{fill:#f16a79;}</style></defs><g id="Layer_2" data-name="Layer 2"><g id="hand"><path class="cls-1" d="M30.48,7.35c-.1-1.3.66-1.87,1-4a10.86,10.86,0,0,0,0-3.35Q26.16.18,20.67.27,15,.36,9.48.35a17.71,17.71,0,0,0,1,5,18.3,18.3,0,0,0,1.35,2.92A3.4,3.4,0,0,1,12,10.2a3.84,3.84,0,0,1-1.56,2.15c-1.14.86-2.91,4.67-5.7,17.49-1.35-.13-1.62,2.56-2.65,5.32A26.21,26.21,0,0,0,0,42.78,124.89,124.89,0,0,0,17.39,57.61,116.31,116.31,0,0,0,11,79.3a2.33,2.33,0,0,0,1.42,2.47,2.34,2.34,0,0,0,1.5.1A2.41,2.41,0,0,0,15.18,81C21.76,69.77,31.65,43.93,33.43,40.4c2.11-1.09,6.57-.24,9-3.27,4.21-5.21-.92-16-4.4-20.16a70.88,70.88,0,0,0-4.57-5.62C31.78,9.67,30.6,8.88,30.48,7.35Z"/><path class="cls-2" d="M8.21,33.44l-.5-.76-.27-1-.38-.24-.45-.29a2.33,2.33,0,0,0-.83-.52l-.62.14.24-.38a1.83,1.83,0,0,1,.48-.77l.32.2a2.47,2.47,0,0,1,.64.4A5.08,5.08,0,0,1,8.05,31l.37.68.21.67a4,4,0,0,1,0,1.19l-.41.64Z"/><path class="cls-2" d="M15.51,34.46l-.13-.79-.29-1.09-.68-1.32a2.11,2.11,0,0,0-1.09-.69,1.47,1.47,0,0,0-.69.07,1.42,1.42,0,0,0-.58.39A5.76,5.76,0,0,0,11,32.76a11.19,11.19,0,0,0-1.17,1.86,42.6,42.6,0,0,0-2.86,8.05c-.53,2.26-.73,3.84-.73,3.84a.42.42,0,0,1-.07.27.46.46,0,0,1-.21.18.44.44,0,0,1-.27-.07.46.46,0,0,1-.18-.21,32,32,0,0,1,.42-4c.18-1.14.52-2.54.91-4a22.68,22.68,0,0,1,1.64-4.43L9.77,32.1A7.69,7.69,0,0,1,11.11,30a2.94,2.94,0,0,1,1.24-.64,3,3,0,0,1,1.4,0,2,2,0,0,1,1.15.73,1.94,1.94,0,0,1,.59.9,5.56,5.56,0,0,1,.64,1.67A7.52,7.52,0,0,1,16.27,34l0,.88-.24.38S15.42,34.59,15.51,34.46Z"/><path class="cls-2" d="M22.51,38.46l-.13-.79-.29-1.09-.68-1.32a2.11,2.11,0,0,0-1.09-.69,1.47,1.47,0,0,0-.69.07,1.42,1.42,0,0,0-.58.39A5.76,5.76,0,0,0,18,36.76a11.19,11.19,0,0,0-1.17,1.86,42.6,42.6,0,0,0-2.86,8.05c-.53,2.26-.73,3.84-.73,3.84a.42.42,0,0,1-.07.27.46.46,0,0,1-.21.18.44.44,0,0,1-.27-.07.46.46,0,0,1-.18-.21,32,32,0,0,1,.42-4c.18-1.14.52-2.54.91-4a22.68,22.68,0,0,1,1.64-4.43l1.33-2.11A7.69,7.69,0,0,1,18.11,34a2.94,2.94,0,0,1,1.24-.64,3,3,0,0,1,1.4,0,2,2,0,0,1,1.15.73,1.94,1.94,0,0,1,.59.9,5.56,5.56,0,0,1,.64,1.67A7.52,7.52,0,0,1,23.27,38l0,.88-.24.38S22.42,38.59,22.51,38.46Z"/></g></g></svg>