<svg xmlns="http://www.w3.org/2000/svg" viewBox="0 0 86.83 144.75"><defs><style>.cls-1{fill:#284464;}.cls-2{fill:#fbc4b6;}.cls-3{fill:#f7a8a7;}.cls-4{fill:#f16a79;}</style></defs><g id="Layer_2" data-name="Layer 2"><g id="head"><path class="cls-1" d="M60.25,103.78c-16.37,2.11-22.74,10.4-27.59-6.87C27,77.3-5.61,58.53,3.64,27.38,9.85,6.49,28,0,45,0A44.54,44.54,0,0,1,85.86,27.83c2.88,8.82-1.36,21-3.56,30.17C81.77,60.64,79,101.51,60.25,103.78Z"/><path class="cls-1" d="M80.94,14.25,79.65,12.9l-1.59-1.36L77,10.71s-.76-.53-1.14-.83L74.5,9.05,73.06,8.3A19.88,19.88,0,0,0,69.72,7a20.2,20.2,0,0,0-3.79-.67,21.61,21.61,0,0,0-3.94,0L58.13,7A25.79,25.79,0,0,0,54.49,8.3a30.59,30.59,0,0,0-3.26,1.58c-1,.6-1.82,1.28-2.65,1.89a14.69,14.69,0,0,0-2,1.81,7.35,7.35,0,0,0-1.29,1.65,3.23,3.23,0,0,0-.68,1.14.5.5,0,0,1-.27.08.47.47,0,0,1-.26-.08v-1l.68-1.29a10.29,10.29,0,0,1,1.29-1.81,15.73,15.73,0,0,1,2-2l2.73-2c1.06-.6,2.19-1.28,3.33-1.81A29.6,29.6,0,0,1,58,5.05a25.56,25.56,0,0,1,4.16-.75,19.38,19.38,0,0,1,4.17,0,21.1,21.1,0,0,1,4,.75,33.12,33.12,0,0,1,3.56,1.44l1.52.9a6.91,6.91,0,0,1,1.36,1A14.71,14.71,0,0,1,79,10.18l1.59,1.59L81.7,13.2a.46.46,0,0,1,0,.6.44.44,0,0,1-.2.52.43.43,0,0,1-.29.07A.44.44,0,0,1,80.94,14.25Z"/><path class="cls-1" d="M30.31,15.39H20.23A26.24,26.24,0,0,0,15.61,17,29.7,29.7,0,0,0,11,19.76a25.79,25.79,0,0,0-4.09,4A7.17,7.17,0,0,0,6.06,25l-.83,1.21-.76,1.36c0,.38-.38.83-.6,1.28a25.82,25.82,0,0,0-1.82,5.73,35.6,35.6,0,0,0-.61,5.73,31.78,31.78,0,0,0,.38,5.43,41.52,41.52,0,0,0,.91,4.83c0,1.43.83,2.79,1.21,3.92s.83,2.19,1.14,3L6,59.35V60a.39.39,0,0,1,.11.27.36.36,0,0,1-.11.26H5.53l-.38-.68L4.24,58A25.79,25.79,0,0,1,3,55a24.52,24.52,0,0,1-1.37-4A42.09,42.09,0,0,1,.45,46,43.58,43.58,0,0,1,0,40.42a33,33,0,0,1,.53-6,29.13,29.13,0,0,1,1.9-6A21.27,21.27,0,0,1,5.68,23a23.89,23.89,0,0,1,4.4-4.3A24.93,24.93,0,0,1,15,15.91a22.74,22.74,0,0,1,4.85-1.58H24.1a26.43,26.43,0,0,1,3.33,0h2.81v.75Z"/><path class="cls-2" d="M60.1,124.06c0-1.88-1.29-4.75-2-8a30.29,30.29,0,0,1-.91-7.09A114.67,114.67,0,0,1,59,87.18L31,56H22.13c10.15,26.32,6.67,52.79-.38,62.75-.45.68,18.19,29,31.6,25.79C62.14,142.62,60.33,125.12,60.1,124.06Z"/><path class="cls-3" d="M58.13,116.07a30.29,30.29,0,0,1-.91-7.09A114.67,114.67,0,0,1,59,87.18L30.77,73.61C30.77,92.84,44,113.05,58.13,116.07Z"/><path class="cls-2" d="M85.79,72.85c-1.06,17.88-10.08,29.42-17.05,31.38-19.33,5.43-37.9-12.67-43.88-38.39a41.13,41.13,0,0,1,1-11.76A8.41,8.41,0,0,0,29,55.36a8.17,8.17,0,0,0,6.42-1.49,8.22,8.22,0,0,0,2.22-2.51C42,44.57,42,28.73,48.28,26c11.44,17,27.81-1.43,34.86,12.37,1.66,5.2.83,13.72,2,21.87A60.32,60.32,0,0,1,85.79,72.85Z"/><ellipse class="cls-3" cx="53.35" cy="70.29" rx="9.32" ry="7.24"/><path class="cls-3" d="M85.79,72.85a6.55,6.55,0,0,1-.61-12.59A60.32,60.32,0,0,1,85.79,72.85Z"/><path class="cls-3" d="M48.28,26c11.44,17,27.81-1.43,34.86,12.37C75.56,30.32,58.89,47.14,48.2,26.1Z"/><path class="cls-3" d="M37.59,51.36A91.76,91.76,0,0,0,43.2,33.71c-1.14,8.75-.91,18.25-6.44,22.1s-8.42,0-10.46-1.51a7.87,7.87,0,0,0,3,1.12,8,8,0,0,0,3.24-.17,7.92,7.92,0,0,0,2.91-1.43A8.14,8.14,0,0,0,37.59,51.36Z"/><path class="cls-1" d="M32.59,21.65h-.46a4.64,4.64,0,0,0-1.29,0H27.66a6.79,6.79,0,0,0-1.21.45,6.93,6.93,0,0,0-2.35,1.73,15,15,0,0,0-1.82,2.79c-.53,1.13-1,2.27-1.44,3.47s-.83,2.42-1.21,3.7l-1.21,3.77C18,38.77,17.66,40,17.2,41.18a32.87,32.87,0,0,1-1.51,3.32,17.37,17.37,0,0,1-1.59,2.86,18.62,18.62,0,0,1-1.67,2.19l-.76.83-.76.68-1.06.83H9.47a.46.46,0,0,1-.6,0,.44.44,0,0,1-.09-.27.43.43,0,0,1,.09-.26,9.34,9.34,0,0,0,1-.9l.68-.61.69-.9a18.71,18.71,0,0,0,1.44-2.11A23.85,23.85,0,0,0,14.1,44c.45-1,.91-2.11,1.28-3.24.84-2.34,1.6-4.83,2.35-7.54a41.17,41.17,0,0,1,2.81-7.54,12.85,12.85,0,0,1,2.12-3.09,7.64,7.64,0,0,1,2.88-2A12,12,0,0,1,27,20.21h3.56a11.15,11.15,0,0,1,1.37.38V21S32.74,21.72,32.59,21.65Z"/><path class="cls-2" d="M16.07,52.57c-4.78,5.35,7.58,26.32,11.14,12.89a10.89,10.89,0,0,0-1.75-11.69,6.57,6.57,0,0,0-7.06-2.42A6.43,6.43,0,0,0,16.07,52.57Z"/><path class="cls-4" d="M24.33,63.8a3.27,3.27,0,0,1-1.45-.64,3.38,3.38,0,0,1-1-1.24,2.32,2.32,0,0,1,0-.91,2.38,2.38,0,0,1,.37-.83,1,1,0,0,0,0-.6A3.51,3.51,0,0,0,21.86,58a3.56,3.56,0,0,0-1.09-1.25,2.78,2.78,0,0,0-2.51,0,.81.81,0,0,1-1-.76.54.54,0,0,1,.06-.3.63.63,0,0,1,.19-.24.62.62,0,0,1,.28-.14,4.29,4.29,0,0,1,3.79.45,5,5,0,0,1,1.61,1.77,4.9,4.9,0,0,1,.59,2.31,2.31,2.31,0,0,1-.46,1.43v.6a2.32,2.32,0,0,0,1.06.76,1,1,0,0,1,.29.08.83.83,0,0,1,.23.19.94.94,0,0,1,.14.26.77.77,0,0,1,0,.3,1,1,0,0,1-.33.29A.81.81,0,0,1,24.33,63.8Z"/><path class="cls-4" d="M19.55,59.51a.82.82,0,0,1-.25-.16.69.69,0,0,1-.18-.24.73.73,0,0,1-.07-.29.71.71,0,0,1,.05-.29A2.57,2.57,0,0,1,20,57.24a2.67,2.67,0,0,1,1.49-.53,2.3,2.3,0,0,1,1.34.29,2.27,2.27,0,0,1,.94,1,.72.72,0,0,1,.21.49.58.58,0,0,1-.06.26.7.7,0,0,1-.15.23.86.86,0,0,1-.61,0,.82.82,0,0,1-.45-.39c0-.38-.69-.38-.84-.38a1.14,1.14,0,0,0-.68.23,1,1,0,0,0-.38.6,1,1,0,0,1-.21.32.94.94,0,0,1-.33.2,1,1,0,0,1-.38,0A1,1,0,0,1,19.55,59.51Z"/></g></g></svg>