<svg xmlns="http://www.w3.org/2000/svg" viewBox="0 0 123.77 551.93"><defs><style>.cls-1{fill:#fbc4b6;}.cls-2{fill:#fff;}.cls-3{fill:#0076ff;}</style></defs><g id="Layer_2" data-name="Layer 2"><g id="LEG_-_right" data-name="LEG - right"><path class="cls-1" d="M116.21,548.61s-55.47.53-73.81.53c-2.66,0-7,.6-6.75-2.72.61-7.54,5.76-20.81,3-28.81,5.16-4.9,24.48-7,24.48-7s0,13.5,4.4,18.17,25.77,9.2,37.89,10.79a14.69,14.69,0,0,1,10.76,9.05Z"/><path class="cls-2" d="M119.93,551.93H38.68c-1.74,0-4.54-1.29-4.39-6.19,0-2.26,2.5-6.94,3-11.39a.69.69,0,0,1,.14-.3.75.75,0,0,1,.26-.21.64.64,0,0,1,.33-.08.64.64,0,0,1,.33.07,77.1,77.1,0,0,0,15.16,7.54,191.56,191.56,0,0,0,47.59,2.11c4-1,4.47-3.7,4.47-3.7a125.69,125.69,0,0,1,15.69,2.42C126.44,544.69,122.35,551.93,119.93,551.93Z"/><path class="cls-3" d="M63.92,519a83.16,83.16,0,0,1-25.08,1.51C38.38,509,8.14,387.06.19,302.59-1.33,287,6.93,253.72,7.76,236.15,9,211,1.7,89.08.64,87.42S55.89-39.66,62.86,12.83C70.44,68,72.79,186.75,73.7,234.34,74.23,259.45,60.21,392.79,63.92,519Z"/></g></g></svg>