<svg xmlns="http://www.w3.org/2000/svg" viewBox="0 0 155.76 225.71"><defs><style>.cls-1{fill:#fbc4b6;}.cls-2{fill:#f16a79;}.cls-3{fill:#fff;}.cls-4{fill:#93b7e1;}</style></defs><g id="Layer_2" data-name="Layer 2"><g id="hand_left" data-name="hand left"><path class="cls-1" d="M101.57,198.11c12.05-7.54,28.8-22.18,32.66-22.18,7.58,0,22.74,10.19,21.45,11.77-2.5,4.6-13.64-3.92-15.16-2.49,4.85,3,13.87,14.1,12.73,17.72-2,6.64-21.75.83-21.75.83s-16.9,17.58-24,15.84a10.3,10.3,0,0,1-7.58-6.94A21.54,21.54,0,0,1,101.57,198.11Z"/><path class="cls-2" d="M129.61,190h1.14a26.72,26.72,0,0,1,3.1,0,10.83,10.83,0,0,1,2.13,0,4.09,4.09,0,0,1,1.21,0h1l1.06.6,1.06.68a21.42,21.42,0,0,1,2,1.58l1.89,1.66,1.74,1.66c1.06,1.21,2,2.34,2.73,3.32s1.37,1.81,1.82,2.41l.68.91-.6.45-.76-.83-2.05-2.19a33.56,33.56,0,0,0-2.88-3.09l-1.67-1.58L141.36,194l-1-.75-1-.68a18.22,18.22,0,0,0-1.9-1.36h-7.73a.42.42,0,0,1-.3-.1.43.43,0,0,1-.15-.27Z"/><path class="cls-2" d="M131.66,196h.68l1.89.45a29.73,29.73,0,0,1,9.93,5.88,11.46,11.46,0,0,1,1.36,1.43v.53h-.75a10.38,10.38,0,0,0-1.44-1.13,51.42,51.42,0,0,0-4.7-3q-2.4-1.44-4.93-2.64l-1.67-.67h-.68v-.68Z"/><path class="cls-2" d="M130.29,182.57h.46l1.21-.38a13.82,13.82,0,0,1,1.82,0h2.42a9,9,0,0,1,2,.76l.84.45.68.45a5.5,5.5,0,0,1,.91.83H141v.53h-.46l-1.06-.53L138,184H131.2a.85.85,0,0,1-.91-1.43Z"/><path class="cls-3" d="M89.22,4.36C55.64,28.26,2.29,96.29.17,121.71-4.15,174.5,76,224.35,93,225.71c1.21,0,16.21-21,8.18-30.54-13.72-16.22-43.8-57.7-45.47-67.88-1.14-6.86,31.07-43.22,57.37-62.45S119-16.91,89.22,4.36Z"/><path class="cls-4" d="M99.14,77.66a1,1,0,0,1-.46-.08,1.06,1.06,0,0,1-.37-.29,1.15,1.15,0,0,1-.33-.8,1.13,1.13,0,0,1,.33-.79A102.33,102.33,0,0,1,125,58.13a1.12,1.12,0,0,1,.44-.09,1,1,0,0,1,.44.08,1.17,1.17,0,0,1,.38.24,1.15,1.15,0,0,1,.25.37,1.34,1.34,0,0,1,.1.44,1.12,1.12,0,0,1-.09.44,1.17,1.17,0,0,1-.24.38,1.15,1.15,0,0,1-.37.25,96,96,0,0,0-26.07,17.2A1.41,1.41,0,0,1,99.14,77.66Z"/></g></g></svg>