<svg xmlns="http://www.w3.org/2000/svg" viewBox="0 0 159.16 638.2"><defs><style>.cls-1{fill:#fbc4b6;}.cls-2{fill:#fff;}.cls-3{fill:#0076ff;}</style></defs><g id="Layer_2" data-name="Layer 2"><g id="Leg-left"><path class="cls-1" d="M46.41,635.19s-22.28.53-40.62.53c-2.66,0-4.85.6-4.55-2.72a133.57,133.57,0,0,0,4.09-30.17c5.15-4.9,16.14-8.82,20.61-5.43a45.17,45.17,0,0,0,12.89,31.53A59.81,59.81,0,0,0,46.41,635.19Z"/><path class="cls-2" d="M46,638.2H1.77c-2.65,0-2-12.21,0-14.25s0,6.64,3.33,8.22,9.86-1.81,13-2.19,20.46-3.54,25-1.35S48.38,638.2,46,638.2Z"/><path class="cls-3" d="M94.53,308.85c-3.64,27.83-55.7,204.46-67,298.73a45.16,45.16,0,0,1-22.74-.45C3.59,554.34.41,434.65,4.8,379.89c2.8-34.69,20.84-62.22,23.34-76.17C33.3,275.06,53.3,24.67,53.53,8.53c0,0,84.05-16.29,104.51-3.85C169.1,41.19,95,302.14,94.53,308.85Z"/></g></g></svg>