<svg xmlns="http://www.w3.org/2000/svg" viewBox="0 0 209.17 476.91"><defs><style>.cls-1{fill:#93b7e1;}.cls-2{fill:#fff;}</style></defs><g id="Layer_2" data-name="Layer 2"><g id="uniform"><polygon class="cls-1" points="76.32 7.17 122.01 7.17 152.63 92.25 90.11 102.88 76.32 7.17"/><path class="cls-2" d="M175.14,132.14c0-3.46,11.06-17.42,8.56-27.6-2.12-8.52-15.84-18.18-14.78-26.4,1.75-13.5,2.2-44.79-5.07-51.81s-27.36-13.12-36.46-15.54l2.2,66.9-50.39-67C62.22,13.51,18.57,31.38,13.64,37-2.65,54.61,49.11,172.8,46.84,190.44c-2.88,22.1-17.06,66.3-22.74,88.39C12.88,319.94,0,470.25,0,470.25c3.87,3.39,106.93,9.12,142.1,5.5,2,0,0-21,0-28.66a38.82,38.82,0,0,0,18.11,25c12,6.33,47.52-2,49-2.72-1.29-30.77-10.54-144.2-16.75-192.84C190.22,264.66,174.15,147.08,175.14,132.14Z"/><path class="cls-1" d="M167.41,474.85c-29.94-6.79-29-45.25-28.72-57.77a13.67,13.67,0,0,1,0-1.81c.68-41.33,1.06-113.13,1.44-170.6,0-47.89.53-89.3.83-100.53a54.85,54.85,0,0,1,1.67-10,62.13,62.13,0,0,0,1.82-22.63,58.88,58.88,0,0,0-6.75-14.63,168.71,168.71,0,0,1-9-18.48,1.13,1.13,0,0,1,.69-1.43,1,1,0,0,1,.43-.09,1.13,1.13,0,0,1,.44.1,1.06,1.06,0,0,1,.35.27,1.2,1.2,0,0,1,.22.4,160,160,0,0,0,8.94,18.1,61.29,61.29,0,0,1,7,15.08,63.69,63.69,0,0,1-1.89,23.76,60.82,60.82,0,0,0-1.6,9.58c0,11.31-.53,52.79-.83,100.61,0,57.54-.76,129.19-1.44,170.52v1.81c0,13.5-1.14,49.17,26.9,55.58a1.17,1.17,0,0,1,.72.5,1.2,1.2,0,0,1,.19.86,1.08,1.08,0,0,1-.51.69A1.1,1.1,0,0,1,167.41,474.85Z"/><path class="cls-1" d="M182.57,115.18a1.21,1.21,0,0,1-.7-.51,1.11,1.11,0,0,1-.14-.85,29.22,29.22,0,0,0,.84-6.71A43.16,43.16,0,0,0,174,89.23a45,45,0,0,1-5.91-10.86,39.23,39.23,0,0,1,.46-13.58,48.2,48.2,0,0,0,.6-5.88,1.1,1.1,0,0,1,.34-.8,1.14,1.14,0,0,1,.8-.33,1.17,1.17,0,0,1,.45.09,1.31,1.31,0,0,1,.38.27,1.06,1.06,0,0,1,.24.39,1.2,1.2,0,0,1,.07.46,40.53,40.53,0,0,1-.69,6.11,40.66,40.66,0,0,0-.45,12.74A47.38,47.38,0,0,0,175.9,88a44.07,44.07,0,0,1,8.94,19.16,30.45,30.45,0,0,1-.91,7.54,1,1,0,0,1-.22.34,1,1,0,0,1-.34.22,1,1,0,0,1-.41.07A1,1,0,0,1,182.57,115.18Z"/><path class="cls-2" d="M82.3.39A184.42,184.42,0,0,0,59,16.53l25.54,36.8,6.59-11.91.68,14.63,37.44,21.64S84.27,2.42,82.3.39Z"/><path class="cls-2" d="M117.24.39c.45,2.64,12.35,77.3,12.35,77.3l7.13-27.6L129.9,38.17l9.85,2.72L131,12.23S116.71-2.55,117.24.39Z"/><path class="cls-1" d="M129.59,78.6h-.53L91.62,57a1.18,1.18,0,0,1-.42-.41A1.16,1.16,0,0,1,91,56l-.46-10.56-4.7,8.37a1.07,1.07,0,0,1-.9.61,1.07,1.07,0,0,1-1.07-.46L57.82,16.23a1.23,1.23,0,0,1-.29-.8,1.2,1.2,0,0,1,.29-.79,1.16,1.16,0,0,1,1.6,0l25,36.05,5.76-10.26a1.21,1.21,0,0,1,.55-.5,1.18,1.18,0,0,1,.74-.1,1.14,1.14,0,0,1,.59.39,1.17,1.17,0,0,1,.25.67l.68,14L129.9,76.26a1.18,1.18,0,0,1,.33.3,1,1,0,0,1,.19.41,1.14,1.14,0,0,1,0,.45,1.1,1.1,0,0,1-.17.42,1.05,1.05,0,0,1-.24.47A1.09,1.09,0,0,1,129.59,78.6Z"/><path class="cls-1" d="M129.59,78.6a1.24,1.24,0,0,1-.7-.55,1.21,1.21,0,0,1-.13-.89l7-27.15-6.59-11.54a1.1,1.1,0,0,1-.2-.64,1.13,1.13,0,0,1,.2-.64,1.06,1.06,0,0,1,1.21,0l7.58,2.19-8.64-28.13a1.17,1.17,0,0,1,.1-.86,1.22,1.22,0,0,1,.66-.58,1.3,1.3,0,0,1,.44-.05,1.32,1.32,0,0,1,.44.13,1.35,1.35,0,0,1,.35.28,1.39,1.39,0,0,1,.21.4l9.24,30.17a1.22,1.22,0,0,1,.14.56,1.26,1.26,0,0,1-.14.57,1.21,1.21,0,0,1-1.13,0l-7.2-2,5.45,9.5a1.3,1.3,0,0,1,0,.91l-7.12,27.6a1.18,1.18,0,0,1-.44.57A1.23,1.23,0,0,1,129.59,78.6Z"/><polygon class="cls-1" points="113.37 94.21 84.65 98.21 82.76 90.36 111.4 86.36 113.37 94.21"/><path class="cls-1" d="M167.41,474.85a1.3,1.3,0,0,1-.91-.38,14.06,14.06,0,0,1-.76-17.8,51.49,51.49,0,0,1-27.2-44.12.94.94,0,0,1,.05-.44,1.3,1.3,0,0,1,.22-.38,1.22,1.22,0,0,1,.36-.27,1.05,1.05,0,0,1,.43-.11,1,1,0,0,1,.45,0,1,1,0,0,1,.4.22,1.22,1.22,0,0,1,.27.36,1.12,1.12,0,0,1,.09.44,49.85,49.85,0,0,0,27.21,43,1.2,1.2,0,0,1,.35.36,1.28,1.28,0,0,1,.18.47,1.3,1.3,0,0,1,0,.91,11.87,11.87,0,0,0,0,15.91,1.14,1.14,0,0,1,0,1.58Z"/></g></g></svg>